<?xml version="1.0" encoding="UTF-8" standalone="no"?>
<!DOCTYPE svg PUBLIC "-//W3C//DTD SVG 1.1//EN" "http://www.w3.org/Graphics/SVG/1.1/DTD/svg11.dtd">
<svg version="1.1" xmlns="http://www.w3.org/2000/svg" xmlns:xlink="http://www.w3.org/1999/xlink" preserveAspectRatio="xMidYMid meet" viewBox="0 0 640 640" width="640" height="640"><defs><path d="M516.25 373.06C516.25 515.37 400.59 630.91 258.13 630.91C115.66 630.91 0 515.37 0 373.06C0 230.75 115.66 115.22 258.13 115.22C400.59 115.22 516.25 230.75 516.25 373.06Z" id="bI7z1CckW"></path><path d="M465.52 8.26C468.61 12.92 469.59 15.02 471.06 19.78C473.02 26.19 473.51 31.29 473.21 41.31C472.92 51.47 471.69 58.73 468.8 67.39C464.88 79.01 461.85 84.52 455.38 91.63C439.17 109.45 419.77 122.12 391.35 133.44C375.73 139.65 364.61 143 337.17 149.91C315.47 155.37 309.69 157.07 298.47 161.48C254.77 178.5 228.96 198.28 218.87 222.36C207.55 249.3 204.95 280.04 212.55 296.31C215.63 302.87 222.1 308.58 228.62 310.38C228.74 310.42 229.38 310.58 230.53 310.88C230.35 309.02 230.25 307.99 230.23 307.78C230.08 306.08 229.06 302.07 227.98 298.92C225.72 292.31 224.99 287.25 224.99 278.54C224.99 256.36 232.83 234.78 247.38 216.95C251.1 212.35 253.99 209.99 260.65 205.94C274.96 197.28 291.07 192.02 322.23 185.76C367.84 176.6 398.51 166.73 421.48 153.91C431.92 148.11 437.26 144.3 452.05 132.18C465.18 121.42 475.32 114.01 475.32 115.21C475.32 116.26 471.79 124.92 469.64 129.23C461.36 145.6 447.98 159.42 426.28 173.89C416.39 180.5 389.64 197.38 381.8 201.98C372.39 207.54 365.39 211.04 352.6 216.55C333.89 224.66 326.25 229.02 320.22 234.98C317.92 237.33 317.09 238.48 317.09 239.48C317.09 240.24 317.14 240.84 317.23 240.84C317.58 240.84 352.36 231.22 357.26 229.77C366.86 226.92 379.5 222.86 389 219.56C464.64 193.42 500.45 156.17 503.54 100.49C504.17 89.63 502.12 79.61 498.1 73.4C497.07 71.75 496.14 70.65 496.04 70.9C495.99 71.15 495.35 74.05 494.62 77.36C492.02 89.53 489.28 96.33 485.51 100.24C481.83 104.05 481.49 103.54 483.4 96.99C484.33 93.93 486.29 87.77 487.76 83.37C491.29 72.85 493.64 63.99 494.67 57.28C495.75 50.27 495.45 41.11 493.93 35.3C490.51 22.18 480.36 10.31 465.82 2.45C463.37 1.1 461.16 0 460.97 0C460.72 0 461.16 1.05 461.9 2.35C462.63 3.71 464.25 6.31 465.52 8.26Z" id="hdvnfVKQJ"></path><path d="M506.67 65.84C511.81 74.25 513.48 77.61 515.15 82.72C517.01 88.47 517.64 93.78 517.3 101.59C516.42 120.77 508.83 139.49 493.93 159.22C488.79 165.98 476.15 178.7 469.15 184.11C461.26 190.22 452.29 196.17 442.5 201.83C434.32 206.49 403.4 222.31 402.38 222.31C402.08 222.31 401.84 222.51 401.84 222.71C401.84 223.16 417.32 221.46 427.8 219.81C472.92 212.85 506.82 198.68 526.27 178.7C537.68 167.03 549.54 145.45 553.94 128.48C557.52 114.86 558.06 101.04 555.41 90.38C555.02 88.72 553.55 85.07 552.18 82.26C544.64 66.74 526.51 56.13 505.99 55.18C505.6 55.16 503.65 55.08 500.16 54.93L501.28 56.88C503.34 60.28 505.14 63.27 506.67 65.84Z" id="cmzYHDYQR"></path><path d="M361.67 191.77C335.8 201.13 324.97 205.49 314.39 210.74C279.95 227.82 262.51 249.15 258.06 279.74C256.88 287.9 257.03 289.25 259.33 293.36C261.44 297.12 263.3 299.02 264.43 298.62C264.96 298.37 264.92 297.92 264.13 296.26C262.81 293.26 262.96 289.2 264.67 281.89C265.45 278.44 266.14 274.88 266.14 273.93C266.14 272.53 266.83 271.48 270.45 267.47C279.32 257.56 291.66 247 305.58 237.38C321.1 226.67 336 218.2 369.26 201.13C390.23 190.37 401.89 183.96 409.38 179.1C420.8 171.74 435.15 160.07 435.15 158.17C435.15 156.67 434.22 157.02 429.76 160.27C414.77 171.24 401.69 177.3 361.67 191.77Z" id="b2UfQWxgLd"></path><path d="M197.96 268.9L198.23 268.93L198.48 268.97L198.72 269.03L198.96 269.1L199.18 269.19L199.4 269.29L199.61 269.42L199.81 269.55L200.01 269.71L200.2 269.89L200.38 270.08L200.55 270.3L200.72 270.53L200.88 270.79L201.04 271.07L201.19 271.37L201.34 271.7L201.48 272.05L201.61 272.42L201.74 272.83L201.87 273.25L201.99 273.71L202.11 274.19L202.23 274.7L202.34 275.25L202.45 275.82L202.55 276.42L202.66 277.05L202.76 277.71L202.86 278.41L202.96 279.14L203.06 279.91L203.15 280.71L203.25 281.54L203.35 282.41L203.44 283.32L203.54 284.27L203.63 285.25L203.65 285.39L203.66 285.53L203.67 285.66L203.68 285.79L203.69 285.91L203.7 286.03L203.71 286.14L203.71 286.26L203.72 286.36L203.72 286.47L203.73 286.57L203.73 286.66L203.73 286.75L203.73 286.84L203.73 286.92L203.72 287L203.72 287.08L203.71 287.15L203.71 287.22L203.7 287.29L203.69 287.35L203.68 287.41L203.67 287.46L203.66 287.52L203.64 287.56L203.63 287.61L203.61 287.65L203.59 287.69L203.58 287.72L203.56 287.76L203.53 287.78L203.51 287.81L203.49 287.83L203.46 287.85L203.44 287.87L203.41 287.88L203.38 287.89L203.35 287.9L203.32 287.9L203.29 287.9L203.26 287.9L203.22 287.9L203.18 287.91L203.14 287.91L203.08 287.91L203.02 287.92L202.96 287.92L202.89 287.93L202.81 287.93L202.73 287.94L202.65 287.95L202.56 287.95L202.46 287.96L202.37 287.97L202.26 287.98L202.15 287.99L202.04 288L201.93 288.01L201.81 288.03L201.68 288.04L201.56 288.05L201.43 288.07L201.29 288.08L201.16 288.1L201.02 288.11L200.88 288.13L200.73 288.15L200.59 288.16L200.44 288.18L200.28 288.2L200.13 288.22L199.98 288.24L199.82 288.25L199.66 288.27L199.5 288.3L199.34 288.32L199.18 288.34L199.01 288.36L198.85 288.38L198.68 288.4L198.5 288.42L198.3 288.44L198.06 288.46L197.8 288.49L197.52 288.51L197.21 288.53L196.88 288.56L196.52 288.59L196.14 288.61L195.74 288.64L195.32 288.67L194.88 288.7L194.42 288.73L193.94 288.76L193.44 288.79L192.92 288.82L192.39 288.85L191.84 288.89L191.28 288.92L190.7 288.95L190.11 288.99L189.5 289.02L188.88 289.06L188.25 289.09L187.61 289.13L186.96 289.16L186.29 289.2L185.62 289.23L184.94 289.27L184.26 289.3L183.56 289.34L182.86 289.38L182.16 289.41L181.45 289.45L180.74 289.48L180.02 289.52L179.3 289.55L178.58 289.59L177.85 289.62L177.13 289.65L174.72 289.76L172.39 289.87L170.14 289.98L167.97 290.09L165.87 290.2L163.85 290.31L161.9 290.43L160.02 290.54L158.2 290.66L156.45 290.78L154.75 290.91L153.12 291.03L151.54 291.16L150.01 291.3L148.53 291.44L147.1 291.58L145.72 291.73L144.38 291.89L143.08 292.05L141.81 292.21L140.59 292.39L139.39 292.57L138.23 292.75L137.09 292.95L135.98 293.15L134.89 293.36L133.82 293.58L132.77 293.81L131.74 294.05L130.72 294.29L129.71 294.55L128.7 294.82L127.7 295.1L126.71 295.38L125.71 295.68L124.71 296L123.71 296.32L122.7 296.66L121.68 297L120.65 297.37L120.29 297.49L119.94 297.62L119.59 297.74L119.25 297.86L118.9 297.99L118.56 298.1L118.22 298.22L117.89 298.34L117.55 298.45L117.23 298.56L116.9 298.67L116.58 298.78L116.27 298.88L115.96 298.98L115.66 299.08L115.36 299.18L115.07 299.27L114.79 299.36L114.51 299.45L114.24 299.53L113.98 299.61L113.72 299.69L113.48 299.76L113.24 299.83L113.01 299.9L112.79 299.97L112.58 300.03L112.38 300.08L112.19 300.13L112.01 300.18L111.84 300.23L111.68 300.27L111.53 300.3L111.4 300.33L111.27 300.36L111.16 300.38L111.06 300.4L110.98 300.41L110.91 300.42L110.85 300.42L110.71 300.42L110.57 300.41L110.43 300.39L110.29 300.37L110.15 300.34L110 300.31L109.86 300.27L109.71 300.23L109.57 300.18L109.42 300.13L109.27 300.07L109.13 300L108.98 299.94L108.83 299.86L108.68 299.78L108.53 299.7L108.39 299.61L108.24 299.52L108.1 299.42L107.95 299.32L107.81 299.22L107.67 299.11L107.52 299L107.38 298.88L107.25 298.76L107.11 298.64L106.97 298.52L106.84 298.39L106.71 298.25L106.58 298.12L106.46 297.98L106.33 297.84L106.21 297.69L106.1 297.55L105.98 297.4L105.87 297.24L105.76 297.09L105.66 296.93L105.56 296.77L105.46 296.61L105.21 296.19L104.96 295.79L104.71 295.41L104.47 295.06L104.24 294.72L104 294.42L103.77 294.13L103.55 293.87L103.33 293.63L103.11 293.41L102.9 293.22L102.7 293.04L102.5 292.9L102.3 292.77L102.11 292.67L101.93 292.59L101.75 292.53L101.58 292.5L101.41 292.48L101.25 292.5L101.1 292.53L100.95 292.59L100.81 292.67L100.68 292.77L100.55 292.89L100.43 293.04L100.32 293.21L100.21 293.4L100.11 293.62L100.02 293.85L99.94 294.11L99.87 294.4L99.8 294.7L99.74 295.03L99.69 295.38L99.65 295.75L99.62 296.15L99.6 296.56L99.59 297L99.58 297.47L99.58 297.69L99.59 297.91L99.59 298.13L99.61 298.34L99.62 298.55L99.64 298.75L99.66 298.95L99.68 299.15L99.71 299.34L99.74 299.53L99.78 299.71L99.82 299.89L99.86 300.07L99.91 300.25L99.97 300.42L100.02 300.6L100.08 300.77L100.15 300.93L100.22 301.1L100.3 301.26L100.38 301.43L100.46 301.59L100.55 301.75L100.65 301.91L100.75 302.07L100.86 302.24L100.97 302.4L101.09 302.56L101.21 302.72L101.34 302.88L101.47 303.04L101.61 303.21L101.76 303.37L101.91 303.54L102.07 303.71L102.24 303.87L102.41 304.05L102.58 304.22L102.77 304.4L102.96 304.58L103.25 304.84L103.56 305.1L103.89 305.36L104.24 305.62L104.6 305.88L104.98 306.14L105.38 306.4L105.8 306.66L106.23 306.92L106.68 307.18L107.14 307.43L107.63 307.69L108.12 307.94L108.64 308.19L109.17 308.44L109.71 308.69L110.27 308.94L110.85 309.19L111.44 309.43L112.05 309.68L112.67 309.92L113.3 310.16L113.95 310.4L114.62 310.64L115.3 310.87L115.99 311.1L116.69 311.34L117.41 311.57L118.14 311.79L118.89 312.02L119.65 312.24L120.42 312.46L121.2 312.68L121.99 312.9L122.8 313.11L123.62 313.32L124.45 313.53L125.29 313.74L126.15 313.94L127.01 314.14L128.16 314.39L129.35 314.64L130.57 314.88L131.82 315.11L133.11 315.34L134.43 315.57L135.79 315.79L137.18 316L138.6 316.2L140.05 316.4L141.53 316.6L143.05 316.79L144.59 316.97L146.16 317.14L147.77 317.31L149.4 317.48L151.06 317.64L152.74 317.79L154.46 317.93L156.2 318.07L157.97 318.2L159.76 318.33L161.58 318.45L163.42 318.56L165.29 318.66L167.18 318.76L169.09 318.86L171.03 318.94L172.99 319.02L174.97 319.1L176.98 319.16L179 319.22L181.05 319.27L183.11 319.32L185.2 319.36L187.3 319.39L189.42 319.41L191.56 319.43L193.72 319.44L195.89 319.45L196.41 319.45L196.95 319.45L197.51 319.45L198.1 319.45L198.7 319.46L199.33 319.46L199.98 319.47L200.64 319.47L201.32 319.48L202.02 319.49L202.73 319.5L203.46 319.51L204.2 319.52L204.96 319.53L205.72 319.54L206.5 319.55L207.28 319.57L208.08 319.58L208.88 319.59L209.69 319.61L210.5 319.62L211.32 319.64L212.14 319.66L212.97 319.67L213.79 319.69L214.62 319.71L215.45 319.73L216.27 319.75L217.09 319.76L217.91 319.78L218.73 319.8L219.54 319.82L220.35 319.84L221.14 319.87L221.93 319.89L222.71 319.91L223.48 319.93L224.24 319.95L224.99 319.97L225.72 320L228.7 320.08L231.55 320.16L234.3 320.24L236.95 320.31L239.49 320.38L241.93 320.45L244.28 320.51L246.53 320.57L248.69 320.63L250.76 320.68L252.75 320.73L254.66 320.78L256.49 320.82L258.25 320.86L259.93 320.89L261.55 320.93L263.1 320.96L264.58 320.98L266.01 321.01L267.38 321.03L268.7 321.05L269.97 321.06L271.19 321.08L272.36 321.09L273.5 321.09L274.6 321.1L275.66 321.1L276.69 321.1L277.69 321.09L278.67 321.09L279.62 321.08L280.55 321.07L281.47 321.06L282.38 321.04L283.27 321.02L284.16 321L285.04 320.98L285.92 320.95L286.81 320.93L287.69 320.9L288.7 320.86L289.68 320.83L290.64 320.8L291.56 320.76L292.47 320.72L293.35 320.69L294.21 320.65L295.05 320.61L295.87 320.58L296.67 320.54L297.46 320.49L298.23 320.45L298.98 320.41L299.72 320.36L300.45 320.32L301.16 320.27L301.87 320.22L302.56 320.17L303.25 320.11L303.93 320.06L304.6 320L305.27 319.94L305.94 319.88L306.6 319.82L307.26 319.75L307.92 319.68L308.58 319.61L309.25 319.53L309.92 319.46L310.59 319.38L311.26 319.29L311.95 319.21L312.64 319.12L313.33 319.03L314.04 318.93L314.76 318.83L315.49 318.73L316.24 318.62L317 318.51L317.77 318.39L319.28 318.16L320.77 317.92L322.24 317.67L323.68 317.41L325.11 317.14L326.52 316.85L327.91 316.56L329.28 316.26L330.63 315.94L331.96 315.62L333.27 315.28L334.55 314.93L335.82 314.58L337.07 314.21L338.3 313.83L339.52 313.44L340.71 313.05L341.88 312.64L343.03 312.22L344.16 311.79L345.27 311.34L346.36 310.89L347.44 310.43L348.49 309.96L349.52 309.48L350.53 308.98L351.53 308.48L352.5 307.96L353.45 307.44L354.39 306.9L355.3 306.36L356.2 305.8L357.07 305.23L357.93 304.66L358.76 304.07L359.58 303.47L360.38 302.86L361.15 302.24L361.91 301.61L362.65 300.97L364.36 299.47L362.89 298.17L362.7 298L362.49 297.83L362.26 297.66L362.03 297.48L361.78 297.3L361.52 297.12L361.25 296.93L360.96 296.74L360.67 296.54L360.36 296.35L360.05 296.15L359.72 295.94L359.39 295.74L359.05 295.54L358.7 295.33L358.35 295.13L357.99 294.92L357.62 294.71L357.25 294.51L356.87 294.3L356.49 294.09L356.11 293.89L355.72 293.68L355.33 293.48L354.93 293.28L354.54 293.08L354.14 292.88L353.74 292.69L353.35 292.5L352.95 292.31L352.55 292.12L352.16 291.94L351.77 291.76L351.38 291.59L350.99 291.42L350.61 291.26L350.23 291.1L349.86 290.95L349.49 290.8L349.13 290.66L348.28 290.34L347.41 290.02L346.53 289.72L345.63 289.42L344.71 289.13L343.77 288.84L342.81 288.56L341.83 288.29L340.84 288.03L339.83 287.77L338.79 287.52L337.74 287.28L336.67 287.04L335.59 286.81L334.48 286.59L333.36 286.37L332.21 286.16L331.05 285.95L329.87 285.76L328.67 285.57L327.45 285.38L326.21 285.21L324.95 285.04L323.68 284.87L322.38 284.72L321.07 284.57L319.74 284.42L318.38 284.29L317.01 284.15L315.62 284.03L314.22 283.91L312.79 283.8L311.34 283.7L309.88 283.6L308.39 283.51L306.89 283.42L305.36 283.34L303.82 283.27L302.26 283.21L300.68 283.15L300.33 283.13L299.99 283.12L299.64 283.11L299.3 283.1L298.95 283.08L298.6 283.07L298.26 283.06L297.91 283.04L297.57 283.03L297.22 283.02L296.88 283L296.54 282.99L296.2 282.97L295.87 282.96L295.54 282.94L295.21 282.93L294.88 282.92L294.56 282.9L294.25 282.89L293.94 282.87L293.64 282.86L293.34 282.84L293.05 282.83L292.76 282.81L292.48 282.8L292.21 282.78L291.95 282.77L291.69 282.75L291.45 282.74L291.21 282.72L290.98 282.71L290.76 282.7L290.56 282.68L290.36 282.67L290.17 282.66L289.99 282.64L289.83 282.63L289.68 282.62L289.54 282.61L289.41 282.59L289.29 282.58L289.17 282.57L289.05 282.56L288.94 282.55L288.83 282.55L288.71 282.54L288.61 282.53L288.5 282.52L288.39 282.52L288.29 282.51L288.19 282.51L288.1 282.5L288 282.5L287.91 282.49L287.82 282.49L287.74 282.49L287.65 282.49L287.57 282.49L287.5 282.49L287.43 282.49L287.36 282.49L287.29 282.49L287.23 282.49L287.17 282.5L287.11 282.5L287.06 282.51L287.01 282.51L286.96 282.52L286.92 282.52L286.89 282.53L286.86 282.54L286.83 282.55L286.8 282.56L286.78 282.57L286.77 282.58L286.76 282.59L286.75 282.6L286.75 282.62L286.76 282.63L286.76 282.64L286.82 282.68L286.91 282.73L287.04 282.78L287.2 282.83L287.39 282.88L287.62 282.94L287.87 283L288.16 283.07L288.48 283.14L288.83 283.21L289.22 283.29L289.63 283.37L290.07 283.45L290.54 283.54L291.04 283.63L291.57 283.72L292.13 283.82L292.71 283.92L293.32 284.02L293.96 284.12L294.62 284.23L295.31 284.34L296.03 284.45L296.77 284.56L297.54 284.68L298.33 284.8L299.14 284.92L299.98 285.04L300.84 285.17L301.72 285.29L302.62 285.42L303.55 285.55L304.5 285.68L305.47 285.82L306.46 285.95L307.47 286.09L308.5 286.23L309.55 286.37L310.61 286.51L311.7 286.65L313.13 286.84L314.52 287.03L315.86 287.21L317.17 287.39L318.44 287.56L319.67 287.74L320.87 287.91L322.03 288.08L323.15 288.24L324.24 288.41L325.31 288.57L326.34 288.73L327.34 288.89L328.31 289.05L329.26 289.2L330.18 289.36L331.07 289.52L331.94 289.67L332.79 289.83L333.62 289.99L334.43 290.14L335.22 290.3L335.99 290.46L336.74 290.62L337.48 290.78L338.2 290.94L338.91 291.11L339.61 291.27L340.3 291.44L340.98 291.61L341.65 291.79L342.31 291.97L342.96 292.14L343.61 292.33L344.26 292.51L344.9 292.71L345.54 292.9L346.18 293.1L346.82 293.3L347.46 293.51L347.7 293.59L347.94 293.67L348.17 293.75L348.4 293.83L348.62 293.91L348.83 293.98L349.04 294.06L349.24 294.14L349.44 294.21L349.62 294.29L349.8 294.36L349.97 294.44L350.13 294.51L350.28 294.58L350.43 294.64L350.56 294.71L350.69 294.77L350.8 294.83L350.91 294.89L351.01 294.94L351.09 295L351.17 295.04L351.23 295.09L351.28 295.13L351.32 295.17L351.35 295.21L351.37 295.24L351.38 295.26L351.37 295.29L351.35 295.31L351.32 295.32L351.27 295.33L351.21 295.33L351.14 295.33L351.05 295.33L350.95 295.31L350.84 295.3L350.71 295.28L350.56 295.25L350.4 295.21L350.34 295.2L350.27 295.19L350.19 295.18L350.1 295.16L349.99 295.15L349.87 295.14L349.75 295.13L349.61 295.11L349.46 295.1L349.3 295.08L349.13 295.07L348.95 295.06L348.77 295.04L348.57 295.03L348.37 295.01L348.15 295L347.93 294.98L347.71 294.97L347.47 294.95L347.23 294.94L346.98 294.92L346.72 294.91L346.46 294.89L346.19 294.88L345.92 294.86L345.64 294.85L345.35 294.83L345.07 294.82L344.77 294.8L344.47 294.79L344.17 294.78L343.87 294.76L343.56 294.75L343.25 294.74L342.94 294.72L342.62 294.71L342.3 294.7L341.98 294.68L341.66 294.67L341.34 294.66L339.3 294.58L337.27 294.49L335.24 294.4L333.23 294.31L331.23 294.21L329.23 294.11L327.26 294L325.29 293.89L323.34 293.77L321.4 293.65L319.48 293.53L317.57 293.4L315.69 293.27L313.82 293.14L311.97 293L310.14 292.86L308.34 292.71L306.55 292.56L304.79 292.41L303.05 292.26L301.34 292.1L299.65 291.94L297.99 291.78L296.36 291.61L294.76 291.44L293.18 291.27L291.64 291.1L290.13 290.92L288.65 290.74L287.2 290.56L285.79 290.38L284.41 290.2L283.07 290.01L281.77 289.82L280.5 289.63L279.27 289.44L278.08 289.24L276.93 289.05L275.83 288.85L274.76 288.65L274.6 288.62L274.45 288.59L274.29 288.56L274.14 288.53L273.99 288.51L273.84 288.48L273.69 288.45L273.54 288.42L273.39 288.39L273.25 288.37L273.11 288.34L272.97 288.31L272.84 288.29L272.71 288.26L272.58 288.24L272.45 288.22L272.33 288.19L272.21 288.17L272.09 288.15L271.98 288.13L271.87 288.11L271.76 288.09L271.66 288.07L271.56 288.05L271.47 288.03L271.38 288.02L271.3 288L271.22 287.99L271.15 287.98L271.08 287.96L271.01 287.95L270.95 287.94L270.9 287.93L270.85 287.92L270.81 287.92L270.78 287.91L270.75 287.91L270.72 287.9L270.71 287.9L270.7 287.9L270.69 287.9L270.67 287.9L270.67 287.89L270.66 287.87L270.65 287.86L270.64 287.84L270.63 287.82L270.63 287.79L270.62 287.77L270.61 287.74L270.61 287.7L270.6 287.67L270.6 287.63L270.6 287.58L270.6 287.54L270.59 287.49L270.59 287.44L270.59 287.39L270.59 287.34L270.59 287.28L270.59 287.22L270.59 287.16L270.6 287.1L270.6 287.04L270.6 286.97L270.61 286.9L270.61 286.83L270.62 286.76L270.63 286.69L270.63 286.61L270.64 286.54L270.65 286.46L270.66 286.38L270.67 286.3L270.68 286.22L270.69 286.14L270.7 286.05L270.72 285.97L270.73 285.89L270.74 285.8L270.82 285.38L270.91 284.96L271.03 284.53L271.16 284.1L271.3 283.67L271.47 283.23L271.64 282.79L271.84 282.35L272.04 281.9L272.26 281.46L272.5 281.02L272.74 280.58L273 280.15L273.27 279.71L273.55 279.29L273.83 278.86L274.13 278.45L274.44 278.04L274.75 277.63L275.07 277.24L275.39 276.85L275.73 276.48L276.06 276.11L276.41 275.76L276.75 275.41L277.1 275.08L277.45 274.77L277.81 274.47L278.16 274.18L278.52 273.91L278.87 273.66L279.23 273.43L279.58 273.21L279.93 273.01L280.28 272.84L280.63 272.68L280.97 272.55L281.3 272.43L281.64 272.35L281.96 272.28L282.22 272.24L282.51 272.21L282.83 272.18L283.19 272.15L283.58 272.12L284 272.09L284.45 272.07L284.93 272.05L285.44 272.03L285.97 272.01L286.53 271.99L287.11 271.98L287.71 271.96L288.33 271.95L288.96 271.95L289.62 271.94L290.29 271.94L290.98 271.93L291.68 271.93L292.39 271.94L293.11 271.94L293.85 271.95L294.58 271.95L295.33 271.96L296.08 271.97L296.84 271.99L297.59 272L298.35 272.02L299.11 272.04L299.87 272.06L300.62 272.09L301.37 272.11L302.11 272.14L302.85 272.17L303.58 272.2L304.3 272.23L305 272.27L305.7 272.3L306.38 272.34L307.04 272.38L309.87 272.58L312.69 272.82L315.49 273.09L318.28 273.41L321.06 273.75L323.82 274.14L326.55 274.55L329.26 275L331.95 275.48L334.6 275.99L337.22 276.53L339.81 277.1L342.36 277.7L344.87 278.33L347.34 278.98L349.77 279.66L352.14 280.36L354.47 281.08L356.74 281.83L358.96 282.6L361.12 283.39L363.22 284.2L365.26 285.03L367.23 285.88L369.13 286.74L370.96 287.62L372.72 288.52L374.41 289.43L376.01 290.35L377.53 291.29L378.97 292.23L380.32 293.19L381.59 294.16L382.76 295.13L383.84 296.12L384.82 297.11L385.7 298.1L386.48 299.11L387.16 300.11L387.73 301.12L387.79 301.24L387.84 301.35L387.9 301.47L387.95 301.58L388 301.7L388.05 301.82L388.1 301.93L388.14 302.05L388.19 302.17L388.23 302.29L388.27 302.41L388.31 302.53L388.34 302.65L388.38 302.78L388.41 302.9L388.45 303.03L388.48 303.16L388.51 303.29L388.53 303.42L388.56 303.56L388.59 303.69L388.61 303.83L388.63 303.97L388.65 304.12L388.67 304.27L388.69 304.42L388.71 304.57L388.72 304.73L388.74 304.89L388.75 305.06L388.76 305.22L388.77 305.4L388.78 305.57L388.79 305.75L388.79 305.94L388.8 306.13L388.8 306.32L388.8 306.52L388.81 306.72L388.81 306.93L388.81 307.47L388.8 308L388.78 308.51L388.75 309.01L388.71 309.5L388.65 309.98L388.59 310.45L388.51 310.9L388.42 311.35L388.31 311.78L388.2 312.2L388.06 312.62L387.92 313.02L387.76 313.42L387.59 313.8L387.4 314.18L387.2 314.55L386.99 314.92L386.76 315.27L386.51 315.62L386.25 315.97L385.97 316.3L385.67 316.63L385.36 316.96L385.04 317.28L384.69 317.6L384.33 317.91L383.95 318.22L383.55 318.53L383.14 318.84L382.7 319.14L382.25 319.44L381.78 319.73L381.29 320.03L380.78 320.32L380.25 320.62L379.7 320.91L379.13 321.21L378.54 321.5L377.93 321.8L377.27 322.11L376.63 322.41L376 322.71L375.4 323L374.81 323.27L374.25 323.55L373.7 323.81L373.17 324.07L372.65 324.32L372.16 324.56L371.68 324.79L371.21 325.02L370.77 325.24L370.33 325.46L369.92 325.67L369.52 325.87L369.13 326.07L368.76 326.26L368.41 326.45L368.07 326.63L367.74 326.81L367.42 326.98L367.12 327.14L366.83 327.3L366.55 327.46L366.29 327.61L366.04 327.76L365.79 327.9L365.56 328.04L365.34 328.18L365.14 328.31L364.94 328.44L364.75 328.56L364.57 328.69L364.4 328.81L364.24 328.92L364.08 329.03L363.94 329.15L363.8 329.25L363.68 329.36L362.06 330.76L363.19 332.11L363.25 332.18L363.31 332.24L363.38 332.3L363.45 332.37L363.52 332.43L363.59 332.49L363.67 332.56L363.75 332.62L363.84 332.68L363.93 332.74L364.02 332.8L364.11 332.87L364.21 332.93L364.31 332.99L364.41 333.05L364.52 333.11L364.62 333.17L364.74 333.23L364.85 333.29L364.97 333.35L365.09 333.41L365.21 333.46L365.34 333.52L365.46 333.58L365.59 333.64L365.73 333.7L365.87 333.75L366 333.81L366.15 333.87L366.29 333.92L366.44 333.98L366.59 334.03L366.74 334.09L366.9 334.15L367.06 334.2L367.22 334.25L367.38 334.31L367.55 334.36L367.72 334.41L367.89 334.47L368.07 334.52L368.25 334.57L368.43 334.62L368.6 334.68L368.77 334.73L368.93 334.78L369.09 334.83L369.24 334.88L369.39 334.93L369.53 334.99L369.67 335.04L369.8 335.09L369.94 335.14L370.06 335.19L370.18 335.24L370.3 335.29L370.42 335.35L370.53 335.4L370.63 335.45L370.74 335.5L370.83 335.55L370.93 335.6L371.02 335.66L371.1 335.71L371.19 335.76L371.27 335.81L371.34 335.86L371.41 335.92L371.48 335.97L371.55 336.02L371.61 336.08L371.66 336.13L371.72 336.18L371.77 336.24L371.82 336.29L371.86 336.35L371.9 336.4L371.94 336.46L371.97 336.51L372 336.57L372.06 336.69L372.1 336.85L372.15 337.03L372.19 337.25L372.22 337.49L372.26 337.77L372.28 338.07L372.31 338.39L372.33 338.74L372.34 339.11L372.35 339.51L372.36 339.92L372.37 340.36L372.37 340.81L372.36 341.27L372.35 341.76L372.34 342.25L372.33 342.76L372.31 343.29L372.29 343.82L372.27 344.36L372.24 344.91L372.21 345.46L372.17 346.03L372.13 346.59L372.09 347.16L372.05 347.73L372 348.3L371.95 348.87L371.9 349.44L371.84 350.01L371.79 350.57L371.72 351.12L371.66 351.67L371.59 352.21L371.52 352.74L371.45 353.26L371.38 353.77L371.3 354.26L371.22 354.75L371.18 354.94L371.15 355.15L371.1 355.37L371.06 355.62L371.01 355.87L370.95 356.15L370.89 356.43L370.83 356.73L370.77 357.05L370.7 357.37L370.63 357.71L370.56 358.06L370.49 358.42L370.41 358.79L370.33 359.18L370.24 359.57L370.16 359.97L370.07 360.38L369.98 360.8L369.89 361.22L369.8 361.66L369.7 362.09L369.6 362.54L369.51 362.99L369.4 363.45L369.3 363.91L369.2 364.37L369.1 364.84L368.99 365.31L368.88 365.78L368.78 366.25L368.67 366.73L368.56 367.2L368.45 367.68L368.34 368.16L368.23 368.63L368.12 369.11L368.01 369.58L367.9 370.05L367.79 370.52L367.68 370.98L367.58 371.45L367.47 371.91L367.37 372.37L367.26 372.83L367.16 373.29L367.05 373.75L366.95 374.2L366.85 374.65L366.75 375.09L366.65 375.53L366.56 375.96L366.46 376.39L366.36 376.82L366.27 377.23L366.18 377.64L366.09 378.05L366 378.44L365.92 378.83L365.84 379.2L365.76 379.57L365.68 379.93L365.6 380.28L365.53 380.62L365.46 380.95L365.39 381.27L365.33 381.57L365.27 381.87L365.21 382.15L365.15 382.42L365.1 382.67L365.05 382.91L365.01 383.14L364.97 383.35L364.93 383.55L364.89 383.73L364.87 383.89L364.84 384.04L364.82 384.17L364.8 384.29L364.78 384.47L364.75 384.64L364.73 384.81L364.71 384.96L364.69 385.11L364.67 385.25L364.66 385.38L364.64 385.5L364.63 385.61L364.62 385.72L364.61 385.82L364.6 385.91L364.6 385.99L364.6 386.06L364.6 386.13L364.6 386.19L364.6 386.25L364.61 386.29L364.62 386.33L364.63 386.36L364.64 386.39L364.66 386.41L364.68 386.43L364.7 386.44L364.73 386.44L364.76 386.44L364.79 386.43L364.82 386.41L364.86 386.39L364.9 386.37L364.94 386.34L364.99 386.31L365.04 386.27L365.09 386.23L365.15 386.18L365.21 386.13L365.27 386.08L365.34 386.02L365.41 385.95L365.49 385.89L365.62 385.76L365.76 385.61L365.9 385.44L366.04 385.26L366.19 385.06L366.33 384.85L366.48 384.62L366.64 384.37L366.79 384.11L366.95 383.83L367.11 383.54L367.27 383.24L367.43 382.92L367.6 382.59L367.77 382.24L367.93 381.88L368.1 381.51L368.28 381.12L368.45 380.72L368.62 380.31L368.8 379.88L368.97 379.44L369.15 379L369.33 378.53L369.51 378.06L369.69 377.58L369.87 377.09L370.05 376.58L370.23 376.06L370.41 375.54L370.59 375L370.77 374.46L370.95 373.9L371.13 373.34L371.31 372.76L371.49 372.18L371.67 371.59L371.84 370.99L372.02 370.38L372.2 369.77L372.49 368.75L372.76 367.77L373.03 366.83L373.3 365.92L373.56 365.05L373.81 364.21L374.05 363.4L374.29 362.62L374.53 361.87L374.76 361.14L374.98 360.45L375.21 359.78L375.43 359.14L375.64 358.52L375.86 357.93L376.07 357.36L376.28 356.81L376.49 356.28L376.7 355.77L376.91 355.28L377.12 354.8L377.33 354.35L377.54 353.91L377.75 353.48L377.96 353.07L378.18 352.67L378.39 352.28L378.61 351.91L378.84 351.54L379.07 351.19L379.3 350.84L379.54 350.49L379.78 350.16L380.03 349.83L380.28 349.5L380.54 349.17L380.81 348.85L381.08 348.53L381.36 348.21L381.65 347.89L382.05 347.46L382.47 347.06L382.9 346.69L383.34 346.33L383.79 345.99L384.26 345.68L384.74 345.38L385.23 345.11L385.74 344.86L386.26 344.63L386.79 344.42L387.33 344.23L387.88 344.07L388.45 343.92L389.03 343.8L389.61 343.7L390.21 343.61L390.82 343.55L391.44 343.52L392.07 343.5L392.71 343.5L393.36 343.53L394.02 343.57L394.69 343.64L395.36 343.73L396.05 343.84L396.75 343.97L397.45 344.13L398.16 344.3L398.88 344.5L399.61 344.72L400.35 344.96L401.09 345.22L401.84 345.5L402.6 345.8L403.37 346.12L404.14 346.47L404.92 346.84L405.7 347.23L406.49 347.64L406.71 347.75L406.92 347.87L407.13 347.99L407.33 348.1L407.54 348.22L407.74 348.34L407.94 348.46L408.14 348.58L408.33 348.7L408.53 348.82L408.72 348.95L408.91 349.07L409.1 349.2L409.29 349.33L409.48 349.46L409.67 349.59L409.85 349.73L410.04 349.86L410.22 350L410.41 350.15L410.6 350.29L410.78 350.44L410.97 350.59L411.15 350.74L411.34 350.9L411.53 351.06L411.72 351.23L411.91 351.39L412.1 351.56L412.29 351.74L412.49 351.92L412.68 352.1L412.88 352.29L413.08 352.49L413.28 352.68L413.48 352.88L413.69 353.09L413.9 353.3L414.11 353.52L414.33 353.74L415.05 354.51L415.75 355.3L416.44 356.11L417.11 356.94L417.76 357.79L418.39 358.66L419.01 359.56L419.61 360.47L420.19 361.4L420.76 362.35L421.31 363.31L421.83 364.29L422.34 365.29L422.84 366.31L423.31 367.34L423.76 368.39L424.2 369.45L424.61 370.53L425.01 371.62L425.39 372.72L425.75 373.84L426.08 374.96L426.4 376.1L426.7 377.26L426.98 378.42L427.23 379.59L427.47 380.77L427.68 381.96L427.88 383.16L428.05 384.37L428.2 385.59L428.33 386.81L428.44 388.04L428.53 389.28L428.59 390.52L428.64 391.77L428.66 393.02L428.66 394.28L428.63 395.54L428.58 396.8L428.53 397.79L428.47 398.77L428.39 399.75L428.3 400.73L428.19 401.71L428.07 402.68L427.94 403.65L427.79 404.62L427.63 405.58L427.45 406.55L427.26 407.51L427.06 408.48L426.84 409.44L426.61 410.4L426.36 411.36L426.1 412.32L425.83 413.27L425.53 414.23L425.23 415.19L424.91 416.15L424.58 417.11L424.23 418.07L423.86 419.03L423.48 419.99L423.09 420.95L422.68 421.91L422.26 422.88L421.82 423.84L421.37 424.81L420.9 425.78L420.41 426.75L419.91 427.72L419.4 428.7L418.87 429.68L418.32 430.66L417.76 431.64L417.18 432.63L416.59 433.62L415.98 434.61L415.36 435.61L414.5 436.94L413.61 438.29L412.67 439.65L411.69 441.02L410.67 442.41L409.62 443.81L408.53 445.21L407.4 446.63L406.24 448.06L405.04 449.49L403.81 450.93L402.54 452.37L401.25 453.82L399.92 455.27L398.57 456.73L397.18 458.19L395.77 459.65L394.33 461.11L392.86 462.57L391.37 464.02L389.86 465.48L388.32 466.93L386.76 468.38L385.17 469.82L383.57 471.26L381.94 472.69L380.3 474.12L378.64 475.53L376.96 476.94L375.27 478.33L373.56 479.72L371.84 481.09L370.1 482.45L368.35 483.8L366.59 485.13L364.82 486.44L363.04 487.74L361.25 489.03L359.45 490.29L357.65 491.54L356.62 492.25L355.63 492.93L354.68 493.58L353.78 494.21L352.92 494.81L352.1 495.4L351.32 495.96L350.57 496.51L349.85 497.05L349.16 497.57L348.51 498.08L347.88 498.59L347.27 499.09L346.69 499.58L346.13 500.08L345.59 500.57L345.07 501.07L344.56 501.57L344.07 502.08L343.58 502.6L343.11 503.13L342.65 503.68L342.19 504.23L341.74 504.81L341.28 505.41L340.83 506.02L340.38 506.67L339.92 507.34L339.46 508.03L338.99 508.76L338.51 509.52L338.02 510.31L337.51 511.14L336.99 512.01L336.46 512.93L335.9 513.88L335.32 514.88L334.72 515.93L334.1 517.02L333.45 518.17L333.04 518.89L332.64 519.59L332.24 520.27L331.85 520.94L331.46 521.58L331.08 522.2L330.7 522.81L330.32 523.4L329.95 523.98L329.58 524.54L329.22 525.08L328.86 525.6L328.5 526.11L328.14 526.6L327.79 527.08L327.44 527.55L327.09 527.99L326.74 528.43L326.39 528.85L326.04 529.26L325.69 529.65L325.35 530.03L325 530.4L324.65 530.76L324.31 531.1L323.96 531.44L323.61 531.76L323.26 532.07L322.91 532.37L322.55 532.66L322.2 532.94L321.84 533.21L321.48 533.47L321.11 533.72L320.74 533.96L320.37 534.19L320 534.42L319.62 534.63L319.24 534.84L318.85 535.05L318.67 535.14L318.49 535.22L318.31 535.31L318.13 535.39L317.95 535.47L317.77 535.55L317.6 535.63L317.42 535.7L317.25 535.78L317.07 535.85L316.9 535.92L316.73 535.98L316.56 536.05L316.39 536.11L316.23 536.17L316.06 536.23L315.9 536.29L315.73 536.34L315.57 536.4L315.4 536.45L315.24 536.5L315.08 536.55L314.92 536.59L314.76 536.64L314.6 536.68L314.44 536.72L314.28 536.76L314.13 536.8L313.97 536.83L313.82 536.86L313.66 536.9L313.51 536.93L313.35 536.95L313.2 536.98L313.04 537L312.89 537.03L312.74 537.05L312.59 537.07L312.44 537.08L312.29 537.1L312.07 537.12L311.87 537.14L311.67 537.16L311.49 537.18L311.31 537.2L311.15 537.22L310.99 537.24L310.84 537.26L310.7 537.28L310.57 537.31L310.44 537.33L310.33 537.35L310.22 537.37L310.12 537.4L310.02 537.42L309.93 537.45L309.85 537.48L309.77 537.51L309.7 537.54L309.64 537.58L309.57 537.61L309.52 537.65L309.47 537.69L309.42 537.74L309.38 537.79L309.34 537.84L309.3 537.89L309.27 537.95L309.24 538.01L309.21 538.07L309.18 538.14L309.16 538.21L309.14 538.29L309.11 538.37L309.1 538.45L309.08 538.54L309.06 538.64L309.04 538.74L309.02 538.84L309 538.95L308.88 539.72L308.76 540.48L308.63 541.23L308.51 541.97L308.38 542.7L308.24 543.42L308.11 544.13L307.97 544.83L307.83 545.52L307.69 546.21L307.55 546.89L307.4 547.56L307.24 548.23L307.09 548.9L306.93 549.56L306.76 550.22L306.6 550.87L306.42 551.53L306.25 552.18L306.07 552.83L305.88 553.48L305.69 554.13L305.49 554.78L305.29 555.44L305.08 556.09L304.87 556.75L304.65 557.41L304.43 558.08L304.2 558.75L303.96 559.42L303.72 560.1L303.47 560.79L303.21 561.48L302.95 562.19L302.68 562.9L302.4 563.62L302.12 564.34L301.82 565.08L301.52 565.83L301.22 566.59L298.91 572.2L291.96 574.45L289.46 575.26L286.93 576.03L284.36 576.77L281.76 577.48L279.13 578.15L276.48 578.8L273.79 579.41L271.09 579.99L268.37 580.54L265.62 581.06L262.87 581.54L260.09 581.99L257.31 582.41L254.52 582.79L251.72 583.15L248.92 583.46L246.12 583.75L243.32 584L240.52 584.22L237.73 584.4L234.95 584.55L232.18 584.67L229.42 584.75L226.67 584.8L223.95 584.81L221.24 584.79L218.55 584.73L215.9 584.64L213.26 584.51L210.66 584.35L208.09 584.15L205.55 583.92L203.05 583.65L200.59 583.35L198.17 583.01L195.8 582.63L193.47 582.22L191.19 581.77L188.96 581.28L186.78 580.76L185.9 580.53L185.02 580.29L184.14 580.05L183.28 579.79L182.41 579.53L181.56 579.25L180.71 578.97L179.87 578.69L179.04 578.39L178.21 578.09L177.4 577.78L176.6 577.47L175.8 577.15L175.02 576.83L174.25 576.49L173.49 576.16L172.74 575.82L172 575.47L171.28 575.12L170.58 574.77L169.88 574.41L169.21 574.04L168.54 573.68L167.9 573.31L167.27 572.94L166.66 572.56L166.06 572.19L165.49 571.81L164.93 571.43L164.39 571.04L163.87 570.66L163.37 570.28L162.9 569.89L162.44 569.5L162 569.12L161.59 568.73L161.2 568.35L160.84 567.96L160.5 567.58L160.18 567.19L159.85 566.77L159.53 566.36L159.23 565.94L158.93 565.52L158.65 565.11L158.38 564.68L158.11 564.26L157.86 563.82L157.61 563.38L157.38 562.93L157.15 562.47L156.93 562L156.72 561.51L156.51 561.01L156.32 560.5L156.12 559.96L155.94 559.4L155.76 558.83L155.58 558.23L155.41 557.61L155.25 556.96L155.09 556.29L154.93 555.59L154.78 554.86L154.63 554.1L154.48 553.3L154.34 552.48L154.19 551.62L154.05 550.72L153.91 549.78L153.77 548.8L153.63 547.79L153.49 546.73L153.35 545.62L153.21 544.47L153.07 543.28L152.93 542.04L152.78 540.74L152.64 539.4L152.49 538L152.3 536.3L152.1 534.62L151.89 532.94L151.67 531.27L151.43 529.6L151.19 527.93L150.93 526.27L150.65 524.61L150.37 522.94L150.06 521.27L149.75 519.59L149.41 517.9L149.06 516.2L148.7 514.48L148.31 512.75L147.91 511L147.49 509.23L147.05 507.44L146.59 505.63L146.11 503.79L145.61 501.92L145.08 500.03L144.54 498.1L143.97 496.13L143.38 494.13L142.77 492.09L142.13 490.02L141.47 487.89L140.79 485.73L140.07 483.52L139.34 481.26L138.57 478.95L137.78 476.58L136.96 474.16L136.11 471.69L135.23 469.16L134.33 466.56L133.39 463.9L132.42 461.18L131.42 458.39L130.76 456.54L130.07 454.62L129.36 452.62L128.63 450.55L127.87 448.41L127.1 446.21L126.31 443.96L125.5 441.65L124.68 439.28L123.84 436.87L122.99 434.42L122.13 431.93L121.26 429.41L120.38 426.85L119.49 424.27L118.59 421.66L117.7 419.04L116.79 416.4L115.89 413.75L114.99 411.09L114.08 408.43L113.18 405.76L112.29 403.11L111.39 400.46L110.51 397.83L109.63 395.21L108.76 392.61L107.89 390.04L107.05 387.49L106.21 384.98L105.39 382.5L104.58 380.07L103.79 377.68L103.02 375.33L102.27 373.04L101.54 370.81L100.83 368.63L100.14 366.52L99.48 364.48L98.85 362.51L98.47 361.34L98.09 360.18L97.7 359.03L97.32 357.9L96.94 356.78L96.55 355.68L96.17 354.59L95.78 353.51L95.4 352.45L95.01 351.4L94.63 350.37L94.24 349.35L93.86 348.35L93.47 347.36L93.09 346.4L92.71 345.44L92.32 344.51L91.94 343.59L91.56 342.7L91.19 341.81L90.81 340.95L90.43 340.11L90.06 339.29L89.69 338.48L89.32 337.7L88.95 336.93L88.59 336.19L88.23 335.47L87.87 334.77L87.51 334.09L87.16 333.43L86.81 332.8L86.46 332.18L86.12 331.59L85.78 331.03L85.45 330.49L85.12 329.97L84.79 329.47L84.47 329L84.15 328.56L84.06 328.44L83.96 328.31L83.85 328.17L83.74 328.02L83.62 327.86L83.49 327.7L83.36 327.53L83.22 327.35L83.08 327.16L82.93 326.97L82.77 326.77L82.62 326.56L82.45 326.35L82.28 326.13L82.11 325.9L81.93 325.68L81.75 325.44L81.57 325.2L81.38 324.96L81.19 324.72L80.99 324.47L80.79 324.21L80.59 323.96L80.39 323.7L80.19 323.44L79.98 323.18L79.78 322.91L79.57 322.64L79.36 322.38L79.15 322.11L78.94 321.84L78.73 321.57L78.51 321.3L78.3 321.03L78.09 320.77L77.88 320.5L77.67 320.23L77.46 319.97L77.25 319.71L77.05 319.45L76.58 318.85L76.13 318.28L75.69 317.72L75.27 317.17L74.87 316.64L74.48 316.13L74.11 315.63L73.76 315.14L73.42 314.66L73.1 314.2L72.79 313.75L72.49 313.31L72.21 312.88L71.94 312.46L71.69 312.04L71.45 311.64L71.22 311.25L71.01 310.86L70.81 310.48L70.62 310.11L70.44 309.74L70.27 309.38L70.12 309.02L69.97 308.67L69.84 308.32L69.72 307.98L69.61 307.63L69.51 307.29L69.41 306.96L69.33 306.62L69.26 306.28L69.19 305.94L69.14 305.6L69.09 305.27L69.05 304.92L69.02 304.58L68.99 304.23L68.98 303.89L68.97 303.53L68.96 303.17L68.96 302.86L68.97 302.56L68.98 302.26L68.99 301.97L69.01 301.69L69.03 301.42L69.05 301.15L69.08 300.88L69.11 300.62L69.15 300.37L69.19 300.12L69.24 299.87L69.29 299.63L69.35 299.39L69.41 299.16L69.48 298.92L69.55 298.69L69.63 298.46L69.72 298.24L69.81 298.01L69.91 297.78L70.02 297.56L70.13 297.33L70.25 297.11L70.38 296.88L70.52 296.65L70.66 296.42L70.81 296.19L70.97 295.95L71.13 295.72L71.31 295.48L71.49 295.23L71.68 294.99L71.88 294.73L72.09 294.48L72.31 294.21L72.54 293.95L72.77 293.67L73.02 293.4L73.27 293.11L73.48 292.88L73.69 292.65L73.9 292.43L74.1 292.21L74.31 292L74.51 291.79L74.72 291.59L74.92 291.4L75.13 291.2L75.34 291.02L75.55 290.83L75.76 290.65L75.97 290.48L76.19 290.31L76.41 290.14L76.63 289.97L76.86 289.81L77.09 289.64L77.32 289.49L77.56 289.33L77.8 289.17L78.05 289.02L78.31 288.87L78.56 288.72L78.83 288.57L79.1 288.42L79.38 288.27L79.67 288.12L79.96 287.98L80.26 287.83L80.57 287.68L80.88 287.53L81.21 287.38L81.54 287.23L81.89 287.08L82.24 286.93L82.6 286.77L82.98 286.62L83.36 286.46L83.76 286.3L84.87 285.87L85.97 285.45L87.08 285.04L88.19 284.64L89.3 284.26L90.42 283.88L91.55 283.52L92.7 283.17L93.86 282.83L95.04 282.49L96.24 282.17L97.46 281.85L98.71 281.54L99.98 281.24L101.28 280.95L102.62 280.66L103.99 280.38L105.41 280.1L106.86 279.83L108.35 279.57L109.89 279.3L111.47 279.05L113.11 278.8L114.8 278.55L116.54 278.3L118.35 278.05L120.21 277.81L122.13 277.57L124.12 277.33L126.18 277.09L128.31 276.85L130.51 276.61L132.78 276.37L135.13 276.13L137.57 275.89L140.08 275.64L142.68 275.39L145.37 275.14L148.15 274.89L151.02 274.63L151.84 274.56L152.66 274.49L153.49 274.42L154.31 274.34L155.14 274.27L155.96 274.2L156.78 274.12L157.6 274.05L158.42 273.97L159.23 273.9L160.04 273.82L160.84 273.75L161.63 273.68L162.42 273.6L163.19 273.53L163.96 273.46L164.72 273.39L165.46 273.31L166.19 273.24L166.91 273.18L167.62 273.11L168.31 273.04L168.99 272.97L169.64 272.91L170.29 272.85L170.91 272.79L171.51 272.73L172.1 272.67L172.66 272.61L173.2 272.56L173.72 272.5L174.21 272.45L174.68 272.4L175.13 272.36L175.55 272.31L175.94 272.27L176.31 272.23L176.64 272.2L176.95 272.16L177.23 272.13L177.74 272.07L178.26 272L178.81 271.93L179.36 271.86L179.93 271.78L180.52 271.7L181.11 271.62L181.71 271.54L182.32 271.45L182.93 271.36L183.54 271.27L184.16 271.18L184.78 271.09L185.4 271L186.02 270.9L186.63 270.81L187.23 270.72L187.83 270.62L188.42 270.53L189 270.43L189.57 270.34L190.12 270.25L190.66 270.16L191.19 270.07L191.69 269.99L192.18 269.9L192.64 269.82L193.08 269.74L193.5 269.66L193.89 269.59L194.25 269.52L194.59 269.45L194.89 269.39L195.17 269.33L195.4 269.27L195.61 269.22L195.77 269.18L195.9 269.14L195.99 269.11L196.04 269.08L196.05 269.07L196.06 269.06L196.07 269.05L196.08 269.05L196.1 269.04L196.12 269.03L196.14 269.02L196.16 269.02L196.18 269.01L196.2 269L196.23 269L196.26 268.99L196.29 268.98L196.32 268.97L196.35 268.97L196.38 268.96L196.41 268.96L196.45 268.95L196.48 268.94L196.52 268.94L196.56 268.93L196.6 268.93L196.64 268.92L196.68 268.92L196.72 268.91L196.76 268.91L196.81 268.9L196.85 268.9L196.9 268.9L196.94 268.89L196.99 268.89L197.03 268.89L197.08 268.88L197.12 268.88L197.17 268.88L197.22 268.88L197.27 268.88L197.31 268.88L197.36 268.88L197.41 268.88L197.69 268.88L197.96 268.9ZM166.69 548.29L166.63 548.31L166.57 548.34L166.51 548.39L166.46 548.44L166.42 548.5L166.38 548.57L166.34 548.65L166.31 548.73L166.29 548.82L166.27 548.92L166.25 549.03L166.24 549.14L166.24 549.26L166.24 549.38L166.24 549.51L166.25 549.64L166.26 549.78L166.28 549.93L166.3 550.08L166.33 550.23L166.36 550.39L166.4 550.55L166.44 550.71L166.48 550.88L166.53 551.05L166.58 551.22L166.64 551.39L166.7 551.57L166.77 551.74L166.84 551.92L166.91 552.1L166.99 552.28L167.07 552.46L167.15 552.64L167.24 552.82L167.33 552.99L167.43 553.17L167.48 553.27L167.53 553.36L167.59 553.46L167.64 553.56L167.69 553.66L167.74 553.76L167.8 553.86L167.85 553.96L167.9 554.07L167.95 554.17L168 554.28L168.05 554.38L168.1 554.49L168.15 554.6L168.2 554.7L168.24 554.81L168.29 554.92L168.34 555.02L168.38 555.13L168.42 555.23L168.47 555.34L168.51 555.44L168.55 555.54L168.59 555.64L168.63 555.74L168.67 555.84L168.71 555.94L168.74 556.03L168.78 556.13L168.81 556.22L168.84 556.31L168.87 556.4L168.9 556.48L168.93 556.56L168.96 556.64L168.98 556.72L169 556.79L169.03 556.86L169.05 556.93L169.08 557.07L169.12 557.2L169.16 557.33L169.21 557.46L169.26 557.58L169.32 557.69L169.39 557.81L169.46 557.91L169.54 558.02L169.63 558.12L169.73 558.22L169.84 558.32L169.96 558.42L170.1 558.51L170.24 558.6L170.4 558.69L170.57 558.78L170.75 558.87L170.95 558.96L171.17 559.04L171.4 559.13L171.65 559.22L171.92 559.31L172.2 559.4L172.51 559.49L172.83 559.58L173.17 559.67L173.54 559.77L173.93 559.87L174.34 559.97L174.77 560.07L175.22 560.18L175.7 560.29L176.21 560.4L176.74 560.52L177.3 560.64L177.88 560.77L178.5 560.9L179.14 561.03L180.22 561.27L181.32 561.49L182.43 561.71L183.56 561.92L184.7 562.13L185.86 562.33L187.03 562.53L188.22 562.71L189.41 562.9L190.62 563.07L191.84 563.24L193.07 563.4L194.31 563.56L195.56 563.7L196.82 563.85L198.09 563.98L199.36 564.11L200.65 564.23L201.94 564.35L203.23 564.45L204.54 564.55L205.85 564.65L207.16 564.74L208.48 564.82L209.8 564.89L211.12 564.95L212.45 565.01L213.78 565.06L215.12 565.11L216.45 565.14L217.78 565.17L219.12 565.2L220.45 565.21L221.78 565.22L223.12 565.22L224.45 565.21L225.77 565.19L227.1 565.17L228.42 565.14L229.29 565.11L230.15 565.09L231.01 565.06L231.86 565.03L232.7 564.99L233.53 564.95L234.36 564.91L235.17 564.87L235.97 564.82L236.77 564.78L237.55 564.73L238.32 564.68L239.08 564.62L239.83 564.57L240.57 564.51L241.3 564.45L242.01 564.38L242.71 564.32L243.39 564.25L244.06 564.18L244.72 564.11L245.36 564.04L245.99 563.97L246.6 563.89L247.19 563.82L247.77 563.74L248.33 563.66L248.87 563.58L249.4 563.49L249.91 563.41L250.4 563.32L250.87 563.23L251.32 563.14L251.75 563.05L252.16 562.96L252.55 562.87L252.92 562.78L253.27 562.68L253.6 562.59L253.8 562.52L254 562.45L254.2 562.38L254.41 562.3L254.62 562.21L254.83 562.13L255.05 562.04L255.26 561.94L255.48 561.84L255.69 561.74L255.91 561.64L256.12 561.53L256.33 561.42L256.54 561.31L256.75 561.2L256.95 561.09L257.15 560.97L257.35 560.86L257.55 560.74L257.73 560.63L257.92 560.51L258.09 560.4L258.27 560.28L258.43 560.17L258.59 560.06L258.74 559.95L258.88 559.84L259.01 559.73L259.14 559.63L259.25 559.52L259.35 559.43L259.45 559.33L259.53 559.24L259.6 559.15L259.66 559.07L259.71 558.99L259.74 558.91L259.76 558.84L259.77 558.78L259.77 558.76L259.75 558.74L259.72 558.71L259.67 558.69L259.62 558.67L259.55 558.65L259.48 558.63L259.39 558.61L259.29 558.59L259.17 558.57L259.05 558.55L258.92 558.53L258.77 558.52L258.62 558.5L258.45 558.48L258.27 558.47L258.09 558.45L257.89 558.44L257.68 558.42L257.46 558.41L257.24 558.4L257 558.39L256.75 558.37L256.49 558.36L256.23 558.35L255.95 558.34L255.67 558.33L255.38 558.33L255.07 558.32L254.76 558.31L254.44 558.3L254.12 558.3L253.78 558.29L253.43 558.29L253.08 558.29L252.72 558.28L252.35 558.28L251.97 558.28L251.59 558.28L249.35 558.27L247.1 558.25L244.84 558.22L242.58 558.17L240.31 558.11L238.04 558.04L235.77 557.95L233.51 557.85L231.24 557.74L228.98 557.61L226.72 557.48L224.47 557.33L222.22 557.17L219.99 557L217.76 556.81L215.55 556.62L213.35 556.41L211.16 556.19L208.99 555.96L206.84 555.72L204.7 555.47L202.59 555.21L200.5 554.94L198.43 554.66L196.38 554.37L194.37 554.07L192.37 553.76L190.41 553.43L188.48 553.1L186.58 552.76L184.71 552.42L182.87 552.06L181.07 551.69L179.31 551.32L177.59 550.93L175.9 550.54L174.26 550.14L172.66 549.73L171.1 549.32L170.95 549.28L170.79 549.23L170.64 549.19L170.49 549.15L170.34 549.11L170.19 549.07L170.04 549.03L169.89 548.99L169.74 548.95L169.59 548.91L169.45 548.87L169.31 548.84L169.17 548.8L169.03 548.76L168.9 548.73L168.77 548.7L168.64 548.66L168.51 548.63L168.39 548.6L168.27 548.57L168.15 548.54L168.04 548.51L167.93 548.49L167.83 548.46L167.73 548.44L167.63 548.42L167.54 548.39L167.45 548.38L167.37 548.36L167.29 548.34L167.22 548.33L167.15 548.31L167.09 548.3L167.03 548.29L166.98 548.28L166.94 548.27L166.9 548.27L166.87 548.27L166.84 548.27L166.76 548.27L166.69 548.29ZM169.57 532.42L169.5 532.44L169.43 532.48L169.37 532.54L169.32 532.61L169.28 532.69L169.24 532.8L169.22 532.93L169.19 533.07L169.17 533.24L169.16 533.43L169.15 533.65L169.15 533.89L169.14 534.15L169.14 534.45L169.14 536.7L172.23 538.2L173.63 538.86L175.13 539.47L176.73 540.04L178.41 540.56L180.16 541.03L181.98 541.46L183.85 541.84L185.77 542.17L187.71 542.45L189.69 542.68L191.68 542.86L193.67 542.98L195.65 543.05L197.63 543.06L199.57 543.02L201.48 542.92L203.35 542.75L205.16 542.53L206.91 542.25L208.58 541.91L209.1 541.78L209.65 541.64L210.22 541.48L210.8 541.31L211.39 541.12L211.98 540.93L212.57 540.72L213.15 540.52L213.72 540.31L214.26 540.1L214.77 539.89L215.25 539.69L215.68 539.5L216.07 539.31L216.41 539.14L216.69 538.98L216.91 538.84L217.05 538.72L217.12 538.63L217.1 538.55L217.08 538.53L217.02 538.5L216.95 538.46L216.85 538.42L216.73 538.37L216.59 538.32L216.43 538.26L216.26 538.21L216.06 538.14L215.85 538.08L215.63 538.01L215.39 537.94L215.14 537.86L214.88 537.79L214.61 537.71L214.33 537.63L214.04 537.55L213.74 537.47L213.44 537.38L213.13 537.3L212.37 537.11L211.56 536.92L210.7 536.73L209.81 536.55L208.87 536.37L207.89 536.19L206.87 536.02L205.81 535.85L204.71 535.69L203.58 535.53L202.41 535.38L201.2 535.23L199.96 535.08L198.69 534.95L197.39 534.82L196.06 534.69L194.7 534.57L193.31 534.45L191.9 534.35L190.45 534.25L189.79 534.2L189.11 534.15L188.41 534.1L187.69 534.05L186.96 534L186.23 533.94L185.48 533.89L184.74 533.84L184 533.78L183.26 533.73L182.53 533.67L181.82 533.62L181.12 533.57L180.44 533.51L179.78 533.46L179.15 533.42L178.56 533.37L177.99 533.33L177.47 533.28L176.98 533.24L176.52 533.2L176.06 533.15L175.6 533.11L175.15 533.06L174.71 533.01L174.28 532.97L173.86 532.92L173.46 532.88L173.06 532.84L172.69 532.79L172.33 532.75L172 532.71L171.68 532.68L171.4 532.64L171.13 532.61L170.9 532.58L170.69 532.55L170.52 532.53L170.38 532.51L170.27 532.49L170.12 532.46L169.99 532.43L169.87 532.41L169.76 532.4L169.66 532.4L169.57 532.42ZM170.52 524.88L171.58 525.15L172.57 525.39L173.51 525.61L174.4 525.81L175.25 525.99L176.07 526.14L176.86 526.28L177.64 526.41L178.42 526.51L179.2 526.6L179.99 526.68L180.8 526.74L181.63 526.79L182.51 526.83L183.43 526.86L184.41 526.88L185.45 526.89L186.56 526.89L187.76 526.89L189.03 526.88L190.25 526.86L191.41 526.84L192.51 526.79L193.56 526.74L194.57 526.68L195.53 526.6L196.45 526.5L197.34 526.39L198.19 526.27L199.02 526.13L199.81 525.98L200.59 525.81L201.34 525.63L202.08 525.42L202.81 525.2L203.53 524.96L204.24 524.71L204.95 524.43L205.34 524.27L205.73 524.09L206.15 523.9L206.57 523.69L206.99 523.48L207.41 523.26L207.83 523.03L208.23 522.8L208.62 522.57L208.99 522.35L209.34 522.13L209.66 521.93L209.94 521.73L210.19 521.55L210.39 521.39L210.55 521.25L210.65 521.13L210.7 521.04L210.69 520.98L210.52 520.91L210.17 520.82L209.63 520.72L208.92 520.61L208.06 520.48L207.04 520.34L205.89 520.2L204.62 520.05L203.23 519.89L201.73 519.72L200.15 519.56L198.49 519.39L196.75 519.21L194.97 519.04L193.13 518.87L191.26 518.7L189.37 518.54L187.46 518.38L185.55 518.22L184.45 518.14L183.35 518.05L182.26 517.96L181.18 517.87L180.12 517.79L179.09 517.7L178.09 517.62L177.12 517.54L176.18 517.46L175.29 517.39L174.45 517.31L173.66 517.25L172.93 517.18L172.26 517.13L171.66 517.07L171.13 517.02L170.68 516.98L170.31 516.95L170.03 516.92L167.18 516.57L167.18 524.03L170.52 524.88ZM396.21 370.66L395.54 370.73L394.88 370.82L394.22 370.94L393.58 371.09L392.94 371.27L392.3 371.47L391.67 371.71L391.04 371.97L390.42 372.26L389.8 372.57L389.19 372.92L388.57 373.3L387.96 373.71L387.35 374.14L386.73 374.61L386.12 375.11L385.51 375.64L384.89 376.2L384.28 376.8L383.66 377.42L383.04 378.08L382.41 378.77L381.78 379.5L381.14 380.26L380.5 381.05L379.86 381.88L379.2 382.74L378.54 383.64L377.87 384.57L377.2 385.54L376.51 386.54L376.22 386.97L375.93 387.4L375.64 387.82L375.35 388.24L375.06 388.65L374.78 389.06L374.49 389.45L374.21 389.85L373.93 390.24L373.66 390.62L373.38 390.99L373.11 391.36L372.84 391.72L372.57 392.08L372.31 392.43L372.05 392.77L371.79 393.1L371.53 393.43L371.28 393.75L371.03 394.07L370.78 394.38L370.54 394.68L370.3 394.97L370.06 395.25L369.82 395.53L369.59 395.8L369.37 396.06L369.14 396.32L368.92 396.56L368.7 396.8L368.49 397.03L368.28 397.25L368.08 397.46L367.88 397.67L367.68 397.86L367.49 398.05L367.3 398.23L367.12 398.4L366.94 398.56L366.76 398.71L366.64 398.81L366.5 398.92L366.36 399.03L366.21 399.14L366.05 399.26L365.88 399.38L365.7 399.5L365.52 399.63L365.33 399.75L365.14 399.88L364.94 400.01L364.73 400.14L364.53 400.26L364.32 400.39L364.1 400.52L363.89 400.65L363.67 400.77L363.46 400.9L363.24 401.02L363.03 401.14L362.81 401.26L362.6 401.37L362.39 401.49L362.18 401.59L361.98 401.7L361.78 401.8L361.59 401.89L361.4 401.99L361.22 402.07L361.04 402.15L360.88 402.22L360.72 402.29L360.57 402.35L360.42 402.41L360.29 402.45L360.17 402.49L360.06 402.52L359.96 402.54L359.88 402.56L359.8 402.56L359.78 402.57L359.76 402.58L359.73 402.6L359.7 402.64L359.66 402.68L359.63 402.73L359.59 402.79L359.55 402.85L359.5 402.93L359.46 403.01L359.41 403.1L359.36 403.2L359.31 403.3L359.26 403.41L359.21 403.53L359.15 403.66L359.09 403.79L359.03 403.93L358.97 404.07L358.91 404.22L358.85 404.38L358.78 404.54L358.72 404.7L358.65 404.88L358.58 405.05L358.52 405.24L358.45 405.42L358.38 405.61L358.31 405.81L358.23 406.01L358.16 406.21L358.09 406.41L358.02 406.62L357.94 406.84L357.87 407.05L357.8 407.27L357.72 407.49L357.65 407.72L357.58 407.94L357.5 408.17L357.28 408.84L357.05 409.54L356.81 410.25L356.57 410.97L356.32 411.71L356.05 412.47L355.79 413.24L355.51 414.03L355.23 414.83L354.94 415.65L354.64 416.48L354.34 417.32L354.04 418.17L353.72 419.03L353.4 419.9L353.08 420.78L352.75 421.68L352.42 422.58L352.08 423.48L351.73 424.4L351.39 425.32L351.04 426.25L350.68 427.18L350.32 428.12L349.96 429.07L349.59 430.02L349.23 430.97L348.85 431.92L348.48 432.88L348.11 433.83L347.73 434.79L347.35 435.75L346.97 436.71L346.59 437.67L346.2 438.63L345.82 439.58L345.43 440.53L345.05 441.48L344.66 442.43L344.28 443.37L343.52 445.19L342.8 446.92L342.12 448.59L341.46 450.18L340.83 451.7L340.23 453.15L339.65 454.54L339.11 455.86L338.58 457.13L338.09 458.33L337.61 459.48L337.16 460.57L336.73 461.61L336.32 462.6L335.94 463.55L335.57 464.45L335.21 465.3L334.88 466.12L334.56 466.89L334.26 467.63L333.97 468.34L333.69 469.02L333.43 469.66L333.18 470.28L332.94 470.88L332.71 471.45L332.49 472.01L332.27 472.54L332.06 473.06L331.86 473.57L331.67 474.06L331.47 474.55L331.28 475.03L331.1 475.51L330.91 475.99L330.73 476.46L330.54 476.94L330.35 477.43L330.16 477.92L329.97 478.42L329.86 478.71L329.75 479.01L329.63 479.31L329.51 479.62L329.39 479.94L329.27 480.26L329.15 480.58L329.03 480.91L328.9 481.24L328.78 481.57L328.65 481.91L328.52 482.25L328.39 482.58L328.27 482.93L328.14 483.27L328.01 483.61L327.88 483.95L327.75 484.3L327.62 484.64L327.5 484.98L327.37 485.32L327.25 485.65L327.12 485.99L327 486.32L326.88 486.65L326.76 486.97L326.64 487.3L326.52 487.61L326.41 487.93L326.29 488.23L326.18 488.54L326.07 488.83L325.97 489.12L325.87 489.4L325.77 489.68L325.67 489.95L325.58 490.21L325.49 490.46L325.4 490.7L325.32 490.94L325.15 491.41L324.98 491.92L324.8 492.46L324.61 493.03L324.42 493.64L324.22 494.26L324.01 494.91L323.8 495.59L323.58 496.28L323.36 496.99L323.14 497.71L322.91 498.44L322.69 499.18L322.46 499.93L322.24 500.68L322.01 501.43L321.79 502.18L321.57 502.93L321.35 503.68L321.14 504.41L320.93 505.13L320.72 505.84L320.52 506.54L320.33 507.22L320.15 507.87L319.97 508.5L319.8 509.11L319.64 509.69L319.5 510.24L319.36 510.76L319.23 511.24L319.12 511.68L319.02 512.08L318.94 512.44L318.86 512.76L318.81 513.02L318.77 513.24L318.75 513.41L318.74 513.52L318.75 513.57L318.76 513.57L318.77 513.57L318.78 513.57L318.8 513.57L318.82 513.55L318.83 513.54L318.86 513.52L318.88 513.5L318.9 513.48L318.93 513.45L318.96 513.42L318.99 513.38L319.02 513.34L319.05 513.3L319.08 513.26L319.12 513.21L319.16 513.16L319.19 513.11L319.23 513.05L319.27 512.99L319.32 512.93L319.36 512.87L319.4 512.8L319.45 512.73L319.49 512.66L319.54 512.59L319.59 512.51L319.64 512.43L319.69 512.35L319.74 512.27L319.79 512.19L319.84 512.1L319.89 512.02L319.95 511.93L320 511.84L320.05 511.75L320.11 511.65L320.16 511.56L320.22 511.46L320.27 511.36L320.59 510.81L320.93 510.23L321.28 509.65L321.64 509.05L322.01 508.44L322.39 507.82L322.79 507.2L323.19 506.56L323.6 505.92L324.03 505.27L324.45 504.61L324.89 503.95L325.34 503.28L325.79 502.61L326.24 501.93L326.7 501.26L327.17 500.58L327.64 499.9L328.11 499.22L328.59 498.55L329.07 497.87L329.55 497.2L330.03 496.53L330.51 495.87L330.99 495.21L331.48 494.55L331.96 493.91L332.44 493.27L332.91 492.64L333.39 492.02L333.86 491.4L334.33 490.8L334.79 490.21L335.25 489.64L335.7 489.07L336.15 488.52L336.59 487.99L337.02 487.47L337.44 486.97L337.86 486.48L338.13 486.17L338.41 485.86L338.71 485.54L339.01 485.21L339.33 484.87L339.66 484.54L339.99 484.19L340.34 483.85L340.7 483.49L341.06 483.14L341.43 482.78L341.81 482.42L342.19 482.06L342.58 481.7L342.97 481.33L343.37 480.97L343.78 480.6L344.19 480.24L344.6 479.88L345.01 479.51L345.43 479.15L345.84 478.79L346.26 478.44L346.68 478.09L347.1 477.74L347.52 477.39L347.94 477.05L348.36 476.72L348.77 476.39L349.18 476.07L349.59 475.75L350 475.44L350.4 475.14L350.8 474.84L351.19 474.55L351.57 474.28L351.95 474.01L352.32 473.75L352.69 473.5L353.04 473.26L353.33 473.07L353.63 472.88L353.94 472.69L354.26 472.49L354.58 472.29L354.92 472.09L355.27 471.88L355.62 471.67L355.98 471.46L356.35 471.25L356.72 471.04L357.1 470.82L357.48 470.61L357.86 470.4L358.25 470.19L358.64 469.98L359.03 469.77L359.42 469.56L359.81 469.35L360.2 469.15L360.58 468.95L360.97 468.75L361.35 468.56L361.72 468.37L362.1 468.18L362.46 468L362.82 467.83L363.18 467.66L363.52 467.5L363.86 467.34L364.19 467.19L364.51 467.05L364.81 466.91L365.11 466.78L365.4 466.66L365.67 466.55L365.93 466.45L366.17 466.36L366.4 466.27L366.61 466.2L366.71 466.17L366.8 466.14L366.9 466.1L366.99 466.06L367.08 466.02L367.18 465.97L367.27 465.93L367.36 465.88L367.45 465.82L367.55 465.77L367.64 465.71L367.73 465.64L367.82 465.58L367.92 465.51L368.01 465.43L368.11 465.36L368.2 465.28L368.3 465.19L368.39 465.1L368.49 465.01L368.59 464.92L368.68 464.82L368.78 464.71L368.89 464.6L368.99 464.49L369.09 464.38L369.2 464.25L369.3 464.13L369.41 464L369.52 463.86L369.63 463.72L369.75 463.58L369.86 463.43L369.98 463.28L370.1 463.12L370.22 462.95L370.34 462.78L370.47 462.61L370.6 462.43L370.73 462.25L370.84 462.1L370.97 461.93L371.11 461.74L371.27 461.54L371.45 461.32L371.65 461.08L371.86 460.83L372.09 460.56L372.34 460.27L372.6 459.97L372.87 459.66L373.16 459.33L373.46 458.99L373.77 458.64L374.1 458.27L374.44 457.89L374.79 457.5L375.15 457.1L375.52 456.69L375.9 456.27L376.3 455.85L376.7 455.41L377.11 454.96L377.52 454.51L377.95 454.05L378.38 453.58L378.82 453.11L379.27 452.63L379.72 452.14L380.17 451.66L380.64 451.16L381.1 450.67L381.57 450.17L382.05 449.66L382.52 449.16L383 448.65L383.48 448.15L383.97 447.64L384.45 447.13L384.94 446.62L386.2 445.3L387.42 444.03L388.59 442.81L389.72 441.63L390.79 440.49L391.83 439.39L392.82 438.33L393.77 437.31L394.68 436.33L395.55 435.38L396.38 434.46L397.18 433.58L397.95 432.72L398.68 431.89L399.38 431.09L400.04 430.31L400.68 429.55L401.29 428.82L401.88 428.1L402.44 427.4L402.97 426.71L403.49 426.04L403.98 425.38L404.45 424.73L404.91 424.09L405.34 423.46L405.77 422.83L406.17 422.2L406.57 421.58L406.95 420.95L407.33 420.33L407.69 419.7L408.05 419.06L408.4 418.42L408.75 417.77L409.09 417.11L409.43 416.44L409.77 415.75L410.11 415.05L410.46 414.33L410.75 413.72L411.02 413.14L411.29 412.56L411.54 412L411.79 411.46L412.02 410.92L412.24 410.4L412.46 409.88L412.66 409.38L412.86 408.88L413.04 408.39L413.21 407.91L413.38 407.43L413.54 406.96L413.69 406.49L413.83 406.03L413.96 405.56L414.08 405.1L414.2 404.63L414.31 404.17L414.41 403.71L414.51 403.24L414.6 402.76L414.68 402.29L414.75 401.81L414.82 401.32L414.88 400.82L414.94 400.32L414.99 399.8L415.04 399.28L415.08 398.75L415.12 398.2L415.15 397.64L415.18 397.07L415.2 396.48L415.22 395.88L415.23 395.26L415.25 394.63L415.25 393.97L415.26 393.3L415.26 392.67L415.26 392.07L415.26 391.48L415.25 390.91L415.24 390.36L415.23 389.83L415.21 389.32L415.19 388.83L415.16 388.34L415.13 387.88L415.09 387.43L415.05 386.99L415.01 386.57L414.96 386.15L414.91 385.75L414.85 385.36L414.78 384.98L414.71 384.61L414.63 384.24L414.55 383.89L414.46 383.54L414.36 383.19L414.26 382.85L414.15 382.52L414.04 382.19L413.91 381.86L413.78 381.54L413.64 381.21L413.5 380.89L413.34 380.57L413.18 380.25L413.01 379.92L412.84 379.59L412.65 379.26L412.45 378.93L412.25 378.59L412.04 378.25L411.81 377.9L411.58 377.54L411.34 377.18L411.17 376.93L411 376.69L410.83 376.46L410.65 376.23L410.47 376L410.29 375.78L410.11 375.57L409.93 375.36L409.75 375.16L409.56 374.96L409.37 374.76L409.18 374.57L408.98 374.39L408.79 374.21L408.59 374.03L408.39 373.87L408.18 373.7L407.98 373.54L407.77 373.38L407.56 373.23L407.34 373.09L407.12 372.95L406.9 372.81L406.68 372.68L406.46 372.55L406.23 372.43L405.99 372.31L405.76 372.19L405.52 372.09L405.28 371.98L405.03 371.88L404.78 371.78L404.53 371.69L404.28 371.6L404.02 371.52L403.76 371.44L403.49 371.37L403.22 371.3L402.95 371.23L402.67 371.17L401.9 371.01L401.15 370.88L400.41 370.78L399.69 370.7L398.97 370.64L398.26 370.6L397.57 370.6L396.88 370.61L396.21 370.66ZM163.59 501.32L163.34 501.36L163.13 501.42L162.96 501.51L162.81 501.61L162.71 501.74L162.63 501.9L162.59 502.07L162.58 502.28L162.6 502.51L162.65 502.76L162.73 503.05L162.84 503.37L162.97 503.71L163.13 504.09L163.31 504.5L163.38 504.66L163.45 504.82L163.52 504.98L163.58 505.15L163.64 505.32L163.7 505.49L163.76 505.66L163.82 505.83L163.87 506.01L163.92 506.18L163.97 506.35L164.01 506.52L164.05 506.68L164.09 506.84L164.12 506.99L164.15 507.14L164.18 507.28L164.2 507.41L164.22 507.54L164.24 507.65L164.24 507.76L164.25 507.92L164.25 508.08L164.26 508.21L164.28 508.34L164.31 508.45L164.34 508.56L164.38 508.65L164.44 508.74L164.51 508.82L164.59 508.89L164.69 508.95L164.81 509.01L164.95 509.07L165.1 509.12L165.28 509.16L165.47 509.21L165.7 509.25L165.94 509.29L166.21 509.33L166.51 509.37L166.84 509.41L167.53 509.48L168.41 509.54L169.48 509.59L170.69 509.63L172.05 509.66L173.52 509.69L175.09 509.7L176.73 509.71L178.43 509.72L180.16 509.71L181.91 509.7L183.65 509.68L185.36 509.65L187.02 509.62L188.62 509.58L190.12 509.53L191.52 509.48L192.78 509.42L193.9 509.36L194.84 509.29L195.6 509.21L196.51 509.09L197.42 508.95L198.31 508.79L199.2 508.62L200.07 508.44L200.93 508.24L201.77 508.03L202.6 507.8L203.4 507.56L204.19 507.31L204.95 507.05L205.69 506.78L206.4 506.5L207.09 506.21L207.75 505.91L208.37 505.6L208.96 505.28L209.52 504.96L210.05 504.63L210.53 504.29L210.98 503.95L211.05 503.9L211.13 503.84L211.19 503.78L211.25 503.72L211.31 503.66L211.37 503.6L211.42 503.53L211.46 503.47L211.5 503.42L211.54 503.36L211.57 503.3L211.6 503.24L211.62 503.19L211.64 503.14L211.65 503.09L211.66 503.04L211.66 503L211.66 502.96L211.65 502.92L211.63 502.88L211.62 502.85L211.52 502.83L211.31 502.8L210.97 502.78L210.52 502.75L209.96 502.72L209.3 502.68L208.53 502.65L207.67 502.61L206.72 502.58L205.69 502.54L204.57 502.5L203.38 502.46L202.12 502.43L200.79 502.39L199.4 502.35L197.95 502.32L196.46 502.28L194.92 502.25L193.33 502.21L191.71 502.18L190.06 502.15L188.41 502.12L186.77 502.08L185.16 502.04L183.57 502L182.01 501.97L180.49 501.93L179.01 501.89L177.58 501.85L176.21 501.81L174.89 501.78L173.64 501.74L172.46 501.7L171.36 501.66L170.33 501.63L169.4 501.59L168.55 501.56L167.81 501.52L167.16 501.49L166.63 501.46L166.21 501.43L165.91 501.4L165.42 501.35L164.97 501.31L164.57 501.29L164.2 501.28L163.88 501.29L163.59 501.32ZM157.29 483.29L157.22 483.31L157.16 483.35L157.1 483.39L157.06 483.44L157.02 483.51L156.99 483.58L156.96 483.67L156.94 483.77L156.92 483.88L156.91 484.01L156.9 484.16L156.9 484.31L156.9 484.49L156.9 484.68L156.9 484.91L156.92 485.15L156.95 485.4L156.99 485.65L157.05 485.91L157.11 486.17L157.19 486.43L157.28 486.71L157.38 486.98L157.49 487.26L157.61 487.55L157.74 487.84L157.88 488.14L158.04 488.44L158.2 488.74L158.38 489.05L158.56 489.36L158.76 489.68L158.96 490L159.18 490.32L159.4 490.65L159.64 490.99L159.73 491.1L159.81 491.22L159.89 491.34L159.97 491.46L160.05 491.58L160.13 491.7L160.2 491.82L160.27 491.94L160.34 492.05L160.41 492.16L160.47 492.28L160.52 492.38L160.58 492.49L160.62 492.59L160.67 492.68L160.7 492.77L160.74 492.86L160.76 492.94L160.79 493.01L160.8 493.08L160.81 493.14L160.82 493.19L160.82 493.25L160.83 493.3L160.85 493.35L160.88 493.4L160.91 493.44L160.95 493.48L161.01 493.51L161.07 493.54L161.13 493.57L161.21 493.59L161.3 493.6L161.4 493.61L161.5 493.62L161.62 493.62L161.74 493.62L161.88 493.62L162.03 493.61L162.18 493.59L162.35 493.57L162.53 493.55L162.72 493.52L162.92 493.49L163.11 493.47L163.37 493.44L163.69 493.42L164.08 493.39L164.52 493.36L165.02 493.33L165.58 493.29L166.18 493.26L166.83 493.22L167.53 493.18L168.27 493.15L169.04 493.11L169.85 493.06L170.69 493.02L171.56 492.98L172.46 492.94L173.38 492.9L174.32 492.86L175.27 492.81L176.24 492.77L177.22 492.73L178.21 492.69L180.19 492.62L182.05 492.54L183.82 492.46L185.48 492.38L187.04 492.29L188.51 492.19L189.89 492.08L191.2 491.97L192.42 491.84L193.57 491.71L194.66 491.56L195.68 491.41L196.65 491.24L197.56 491.06L198.43 490.86L199.25 490.66L200.04 490.43L200.79 490.2L201.52 489.94L202.22 489.67L202.91 489.39L203.58 489.08L203.95 488.91L204.31 488.73L204.66 488.56L205 488.38L205.33 488.2L205.64 488.02L205.95 487.84L206.24 487.67L206.51 487.5L206.76 487.34L206.99 487.18L207.2 487.03L207.39 486.89L207.56 486.76L207.69 486.64L207.8 486.53L207.88 486.43L207.93 486.35L207.95 486.28L207.93 486.23L207.88 486.2L207.8 486.18L207.73 486.18L207.55 486.17L207.27 486.16L206.89 486.15L206.41 486.13L205.85 486.11L205.19 486.08L204.45 486.05L203.63 486.02L202.74 485.99L201.77 485.95L200.73 485.92L199.63 485.87L198.48 485.83L197.26 485.79L195.99 485.74L194.68 485.69L193.32 485.64L191.92 485.59L190.48 485.54L189.01 485.48L187.51 485.43L186.01 485.37L184.52 485.32L183.04 485.26L181.57 485.2L180.13 485.14L178.71 485.07L177.33 485.01L175.97 484.95L174.67 484.89L173.4 484.83L172.19 484.76L171.03 484.7L169.93 484.64L168.89 484.58L167.93 484.53L167.04 484.47L166.22 484.42L165.49 484.36L164.85 484.31L164.31 484.26L163.86 484.22L163.51 484.18L163.21 484.14L162.92 484.09L162.62 484.05L162.33 484.01L162.03 483.97L161.74 483.92L161.45 483.88L161.17 483.84L160.89 483.8L160.62 483.76L160.36 483.72L160.1 483.68L159.86 483.64L159.62 483.61L159.4 483.57L159.19 483.54L159 483.51L158.82 483.48L158.65 483.45L158.51 483.42L158.38 483.4L158.27 483.38L158.1 483.34L157.95 483.32L157.81 483.29L157.68 483.28L157.57 483.27L157.47 483.27L157.37 483.27L157.29 483.29ZM147.8 463.68L147.74 463.73L147.69 463.79L147.65 463.88L147.63 463.98L147.62 464.1L147.62 464.24L147.65 464.41L147.68 464.59L147.73 464.79L147.79 465.01L147.87 465.25L147.96 465.52L148.07 465.8L148.19 466.11L148.33 466.44L148.47 466.79L148.64 467.16L148.81 467.55L148.92 467.78L149.01 468.01L149.11 468.24L149.2 468.47L149.29 468.71L149.38 468.94L149.46 469.16L149.54 469.39L149.61 469.61L149.68 469.83L149.75 470.03L149.8 470.24L149.86 470.43L149.9 470.61L149.94 470.78L149.98 470.95L150 471.1L150.02 471.23L150.03 471.35L150.04 471.46L150.04 471.58L150.05 471.69L150.06 471.8L150.08 471.9L150.1 471.99L150.13 472.09L150.17 472.17L150.21 472.25L150.26 472.33L150.31 472.4L150.37 472.47L150.43 472.53L150.5 472.59L150.58 472.64L150.66 472.69L150.75 472.73L150.84 472.77L150.94 472.81L151.05 472.84L151.16 472.86L152.38 473.07L153.88 473.25L155.63 473.39L157.59 473.51L159.75 473.6L162.06 473.66L164.49 473.69L167.02 473.69L169.61 473.67L172.24 473.62L174.86 473.54L177.45 473.44L179.98 473.32L182.42 473.18L184.73 473.01L186.89 472.82L188.86 472.61L190.62 472.38L192.12 472.13L193.34 471.86L194.62 471.56L193.49 470.66L192.89 470.2L192.27 469.78L191.63 469.39L190.96 469.03L190.25 468.7L189.5 468.4L188.71 468.13L187.86 467.88L186.96 467.67L185.98 467.47L184.94 467.3L183.82 467.15L182.62 467.03L181.32 466.92L179.93 466.83L178.44 466.77L176.85 466.71L175.13 466.68L173.3 466.66L171.35 466.65L169.69 466.65L168.13 466.63L166.64 466.61L165.24 466.58L163.91 466.54L162.65 466.49L161.47 466.43L160.35 466.36L159.29 466.28L158.29 466.19L157.34 466.09L156.45 465.97L155.61 465.84L154.81 465.7L154.05 465.55L153.33 465.39L152.65 465.21L152 465.02L151.37 464.82L150.77 464.6L150.58 464.52L150.38 464.45L150.18 464.38L149.99 464.31L149.81 464.24L149.62 464.17L149.45 464.11L149.28 464.05L149.11 463.99L148.95 463.94L148.81 463.88L148.67 463.84L148.54 463.8L148.42 463.76L148.31 463.73L148.22 463.7L148.14 463.68L148.07 463.66L148.02 463.65L147.98 463.65L147.89 463.66L147.8 463.68ZM141.76 446.69L141.43 446.74L141.2 446.81L141.06 446.91L141 447.04L141.01 447.19L141.07 447.38L141.18 447.6L141.32 447.86L141.49 448.15L141.66 448.48L141.74 448.65L141.82 448.84L141.91 449.05L141.99 449.26L142.08 449.49L142.17 449.74L142.26 449.98L142.34 450.24L142.43 450.5L142.52 450.77L142.6 451.04L142.69 451.31L142.77 451.58L142.85 451.85L142.92 452.12L142.99 452.38L143.06 452.64L143.12 452.89L143.18 453.13L143.77 455.94L147.29 455.69L147.64 455.67L148.05 455.66L148.53 455.66L149.08 455.66L149.69 455.67L150.36 455.68L151.08 455.69L151.84 455.71L152.65 455.73L153.5 455.76L154.37 455.79L155.28 455.82L156.21 455.85L157.16 455.89L158.13 455.94L159.1 455.98L160.08 456.03L161.06 456.08L162.04 456.14L163.35 456.2L164.59 456.27L165.74 456.32L166.83 456.37L167.85 456.41L168.8 456.44L169.69 456.47L170.53 456.49L171.31 456.5L172.04 456.5L172.72 456.5L173.37 456.49L173.97 456.47L174.54 456.44L175.07 456.41L175.58 456.36L176.07 456.31L176.53 456.25L176.98 456.19L177.57 456.09L178.17 455.96L178.79 455.81L179.42 455.65L180.05 455.46L180.68 455.26L181.31 455.04L181.92 454.82L182.51 454.59L183.07 454.35L183.61 454.1L184.11 453.86L184.57 453.62L184.98 453.38L185.34 453.15L185.64 452.93L185.88 452.71L186.05 452.51L186.14 452.33L186.09 452.07L185.76 451.8L185.17 451.52L184.34 451.23L183.28 450.93L181.99 450.63L180.5 450.32L178.81 450.02L176.94 449.71L174.91 449.41L172.72 449.11L170.38 448.82L167.92 448.54L165.34 448.26L162.66 448L159.89 447.76L157.04 447.53L154.13 447.32L151.16 447.12L149.41 447.02L147.87 446.92L146.51 446.84L145.33 446.77L144.32 446.72L143.48 446.68L142.77 446.66L142.2 446.67L141.76 446.69ZM135.1 432.85L135.19 433.01L135.29 433.17L135.39 433.34L135.49 433.51L135.59 433.69L135.69 433.87L135.79 434.06L135.89 434.24L135.99 434.43L136.08 434.62L136.18 434.81L136.26 434.99L136.35 435.18L136.43 435.36L136.51 435.53L136.58 435.7L136.65 435.86L136.71 436.02L136.76 436.17L136.81 436.31L137.35 438.01L143.08 438.36L143.56 438.39L144.07 438.41L144.59 438.45L145.12 438.48L145.67 438.52L146.23 438.55L146.79 438.59L147.36 438.64L147.93 438.68L148.5 438.73L149.06 438.77L149.61 438.82L150.16 438.86L150.69 438.91L151.21 438.95L151.71 439L152.19 439.04L152.64 439.08L153.07 439.12L153.47 439.16L154.58 439.26L155.74 439.34L156.94 439.41L158.17 439.46L159.44 439.51L160.72 439.55L162 439.57L163.29 439.58L164.57 439.59L165.84 439.58L167.08 439.56L168.28 439.52L169.45 439.48L170.56 439.43L171.61 439.36L172.6 439.28L173.51 439.2L174.34 439.1L175.07 438.99L175.71 438.86L176.17 438.75L176.66 438.62L177.17 438.47L177.69 438.3L178.22 438.11L178.75 437.91L179.27 437.7L179.79 437.49L180.3 437.27L180.78 437.05L181.23 436.83L181.66 436.61L182.04 436.4L182.39 436.2L182.68 436L182.92 435.83L183.09 435.67L183.2 435.52L183.24 435.4L183.2 435.31L183.02 435.25L182.56 435.16L181.85 435.05L180.92 434.92L179.78 434.76L178.45 434.59L176.97 434.4L175.35 434.21L173.61 434L171.78 433.79L169.87 433.57L167.91 433.35L165.93 433.13L163.93 432.92L161.96 432.71L160.02 432.51L158.14 432.32L156.34 432.15L154.64 431.99L153.08 431.85L152.32 431.79L151.55 431.73L150.77 431.68L149.98 431.62L149.18 431.57L148.38 431.51L147.59 431.46L146.79 431.42L146.01 431.37L145.24 431.33L144.48 431.29L143.75 431.25L143.03 431.22L142.35 431.19L141.69 431.16L141.08 431.14L140.49 431.12L139.95 431.11L139.46 431.1L139.02 431.1L133.92 431.1L135.1 432.85ZM128.87 413.28L128.75 413.35L128.64 413.46L128.56 413.59L128.49 413.76L128.45 413.94L128.42 414.16L128.41 414.4L128.42 414.65L128.45 414.93L128.49 415.22L128.56 415.53L128.64 415.85L128.73 416.18L128.85 416.52L128.98 416.87L129.13 417.22L129.29 417.57L129.47 417.93L129.66 418.29L129.87 418.64L130.1 418.99L131.67 421.44L145.38 421.89L147.52 421.96L149.67 422.02L151.81 422.07L153.95 422.12L156.07 422.17L158.17 422.21L160.24 422.24L162.28 422.27L164.27 422.29L166.21 422.31L168.1 422.32L169.92 422.32L171.66 422.32L173.33 422.31L174.91 422.3L176.4 422.28L177.79 422.25L179.07 422.22L180.24 422.18L181.28 422.14L182.19 422.08L182.97 422.03L183.6 421.96L184.08 421.89L186.53 421.49L184.82 420.59L184.1 420.23L183.35 419.88L182.55 419.55L181.71 419.23L180.84 418.91L179.93 418.61L178.97 418.33L177.98 418.05L176.94 417.78L175.86 417.52L174.75 417.28L173.59 417.05L172.39 416.82L171.15 416.61L169.87 416.41L168.54 416.22L167.17 416.04L165.76 415.87L164.31 415.71L162.82 415.56L161.28 415.43L159.7 415.3L158.07 415.19L156.41 415.08L155.74 415.05L155.04 415.01L154.32 414.98L153.58 414.94L152.82 414.89L152.05 414.85L151.26 414.81L150.46 414.76L149.66 414.72L148.85 414.67L148.04 414.62L147.23 414.57L146.42 414.52L145.62 414.48L144.83 414.43L144.04 414.38L143.28 414.33L142.53 414.28L141.79 414.24L141.09 414.19L140.4 414.15L139.75 414.11L139.12 414.07L138.53 414.03L137.96 414L137.4 413.96L136.84 413.93L136.3 413.9L135.76 413.86L135.23 413.83L134.72 413.79L134.22 413.76L133.74 413.72L133.28 413.68L132.83 413.65L132.4 413.62L132 413.58L131.61 413.55L131.26 413.51L130.92 413.48L130.62 413.45L130.34 413.42L130.1 413.39L129.88 413.37L129.7 413.34L129.55 413.32L129.44 413.3L129.37 413.28L129.18 413.24L129.01 413.24L128.87 413.28ZM123.26 394.6L123.21 394.66L123.17 394.75L123.13 394.86L123.11 394.99L123.09 395.14L123.08 395.31L123.08 395.5L123.09 395.71L123.1 395.93L123.13 396.18L123.16 396.43L123.19 396.71L123.24 397L123.29 397.3L123.35 397.62L123.42 397.95L123.49 398.29L123.57 398.64L123.65 398.99L123.74 399.36L123.84 399.74L123.95 400.12L124.06 400.51L124.17 400.91L125.3 404.57L134.12 404.57L134.7 404.57L135.32 404.57L135.98 404.57L136.67 404.58L137.4 404.59L138.16 404.6L138.94 404.62L139.75 404.63L140.58 404.65L141.44 404.66L142.31 404.68L143.19 404.71L144.09 404.73L144.99 404.75L145.91 404.78L146.82 404.8L147.74 404.83L148.66 404.86L149.58 404.89L150.48 404.92L151.39 404.95L152.27 404.98L153.15 405.01L154.01 405.05L154.85 405.08L155.67 405.12L157.23 405.19L158.73 405.25L160.18 405.3L161.57 405.34L162.92 405.37L164.22 405.4L165.48 405.41L166.68 405.41L167.85 405.41L168.97 405.39L170.06 405.36L171.1 405.33L172.11 405.28L173.08 405.22L174.02 405.15L174.92 405.08L175.8 404.99L176.64 404.89L177.46 404.78L178.25 404.66L179.01 404.53L179.75 404.39L180.47 404.24L181.17 404.07L181.85 403.9L182.52 403.71L182.81 403.63L183.08 403.55L183.34 403.48L183.57 403.41L183.78 403.35L183.97 403.29L184.14 403.23L184.29 403.18L184.42 403.13L184.54 403.08L184.63 403.04L184.71 403L184.78 402.96L184.82 402.92L184.86 402.88L184.87 402.85L184.87 402.81L184.86 402.77L184.83 402.74L184.79 402.7L184.73 402.67L184.67 402.63L184.59 402.59L184.5 402.55L184.39 402.51L184.28 402.46L183.98 402.36L183.6 402.24L183.14 402.13L182.62 402.01L182.04 401.89L181.39 401.77L180.68 401.64L179.92 401.51L179.11 401.38L178.25 401.25L177.34 401.12L176.4 400.99L175.41 400.85L174.4 400.72L173.35 400.59L172.28 400.46L171.18 400.34L170.06 400.21L168.93 400.09L167.78 399.97L166.62 399.86L165.46 399.75L164.29 399.64L163.13 399.54L161.97 399.45L160.82 399.36L158.46 399.18L156.21 399L154.08 398.83L152.06 398.66L150.15 398.5L148.33 398.34L146.61 398.19L144.98 398.04L143.44 397.89L141.98 397.74L140.6 397.59L139.3 397.45L138.06 397.3L136.89 397.16L135.78 397.02L134.74 396.87L133.74 396.72L132.79 396.57L131.89 396.42L131.03 396.27L130.2 396.11L129.41 395.95L128.65 395.78L127.9 395.61L127.18 395.43L126.47 395.25L126.3 395.21L126.13 395.17L125.96 395.13L125.79 395.09L125.62 395.05L125.45 395.01L125.29 394.98L125.14 394.94L124.98 394.9L124.83 394.87L124.69 394.83L124.55 394.8L124.42 394.77L124.29 394.74L124.17 394.71L124.06 394.69L123.95 394.66L123.85 394.64L123.76 394.62L123.68 394.6L123.61 394.59L123.54 394.57L123.49 394.56L123.44 394.56L123.41 394.55L123.39 394.55L123.32 394.56L123.26 394.6ZM120.5 379.05L120.48 379.08L120.45 379.11L120.43 379.16L120.41 379.22L120.39 379.28L120.37 379.35L120.34 379.44L120.32 379.52L120.31 379.62L120.29 379.73L120.27 379.84L120.25 379.95L120.24 380.08L120.22 380.21L120.21 380.34L120.2 380.48L120.19 380.63L120.18 380.78L120.17 380.93L120.16 381.09L120.16 381.25L120.16 381.42L120.16 381.58L120.16 384.09L122.75 385.29L123.6 385.67L124.46 386.03L125.33 386.37L126.21 386.69L127.11 386.98L128.03 387.25L128.98 387.5L129.95 387.72L130.96 387.93L132 388.11L133.08 388.27L134.21 388.42L135.37 388.54L136.59 388.64L137.86 388.73L139.19 388.79L140.57 388.84L142.02 388.87L143.53 388.88L145.12 388.87L146.78 388.85L148.51 388.81L150.32 388.75L152.22 388.68L154.2 388.59L155.05 388.56L155.91 388.52L156.79 388.49L157.67 388.45L158.56 388.41L159.45 388.38L160.34 388.35L161.23 388.31L162.12 388.28L163 388.25L163.86 388.22L164.72 388.19L165.56 388.17L166.39 388.14L167.19 388.12L167.97 388.09L168.73 388.07L169.46 388.06L170.16 388.04L170.82 388.03L171.45 388.01L172.04 388L172.59 388L173.09 387.99L173.55 387.99L180.17 387.94L177.23 386.49L176.47 386.13L175.71 385.78L174.93 385.46L174.15 385.16L173.34 384.87L172.51 384.59L171.64 384.34L170.74 384.09L169.79 383.86L168.8 383.65L167.75 383.44L166.64 383.25L165.46 383.06L164.21 382.89L162.89 382.72L161.48 382.56L159.99 382.4L158.4 382.25L156.71 382.11L154.91 381.97L153.01 381.83L150.98 381.69L148.84 381.56L146.57 381.42L144.16 381.28L143.27 381.23L142.37 381.18L141.47 381.13L140.57 381.07L139.67 381.01L138.77 380.95L137.88 380.89L137 380.83L136.13 380.76L135.28 380.7L134.44 380.63L133.62 380.56L132.82 380.5L132.05 380.43L131.3 380.37L130.58 380.3L129.89 380.24L129.24 380.17L128.63 380.11L128.05 380.05L127.51 379.99L127.02 379.94L126.58 379.88L126.18 379.83L125.84 379.78L125.52 379.73L125.2 379.69L124.89 379.64L124.58 379.59L124.28 379.55L123.98 379.5L123.69 379.46L123.41 379.42L123.14 379.38L122.88 379.34L122.63 379.31L122.39 379.27L122.16 379.24L121.94 379.21L121.74 379.18L121.55 379.15L121.37 379.13L121.21 379.11L121.06 379.09L120.93 379.07L120.82 379.06L120.72 379.04L120.65 379.04L120.59 379.03L120.55 379.03L120.52 379.03L120.5 379.05ZM119.57 370.47L120.56 370.75L121.55 371.01L122.54 371.26L123.54 371.49L124.56 371.71L125.6 371.91L126.66 372.1L127.76 372.27L128.89 372.43L130.07 372.58L131.29 372.72L132.57 372.84L133.91 372.95L135.31 373.05L136.78 373.14L138.32 373.22L139.95 373.29L141.66 373.34L143.47 373.39L145.38 373.43L147.38 373.47L149.5 373.49L151.73 373.51L154.08 373.52L156.55 373.52L158.79 373.52L160.85 373.52L162.72 373.52L164.42 373.51L165.96 373.51L167.34 373.49L168.57 373.47L169.65 373.44L170.6 373.39L171.41 373.34L172.1 373.28L172.67 373.2L173.13 373.1L173.49 372.99L173.75 372.86L173.92 372.71L174.01 372.54L174.02 372.35L173.96 372.13L173.84 371.89L173.66 371.63L173.43 371.33L173.16 371.01L172.86 370.65L172.52 370.27L172.27 369.98L172.01 369.71L171.74 369.45L171.47 369.22L171.2 369.01L170.91 368.81L170.61 368.63L170.3 368.47L169.97 368.32L169.62 368.2L169.25 368.08L168.85 367.98L168.43 367.9L167.99 367.83L167.51 367.77L167 367.73L166.46 367.7L165.88 367.68L165.26 367.68L164.6 367.68L163.9 367.7L163.15 367.72L162.36 367.76L161.52 367.81L160.62 367.86L159.41 367.94L158.26 368L157.17 368.05L156.13 368.09L155.12 368.11L154.15 368.12L153.21 368.12L152.28 368.1L151.36 368.06L150.44 368L149.52 367.93L148.58 367.83L147.61 367.71L146.62 367.58L145.59 367.41L144.51 367.23L143.38 367.02L142.18 366.78L140.92 366.51L139.58 366.22L138.15 365.9L136.63 365.55L135 365.17L133.27 364.75L131.42 364.31L130.7 364.13L129.97 363.95L129.25 363.78L128.54 363.6L127.84 363.43L127.15 363.27L126.47 363.11L125.8 362.95L125.15 362.79L124.52 362.65L123.91 362.5L123.31 362.37L122.75 362.24L122.2 362.11L121.68 361.99L121.19 361.89L120.74 361.78L120.31 361.69L119.91 361.61L119.55 361.53L119.23 361.46L118.95 361.41L118.7 361.36L118.5 361.33L118.34 361.3L116.24 361L116.24 369.47L119.57 370.47ZM115.38 345.51L115.37 345.54L115.37 345.58L115.36 345.64L115.35 345.71L115.34 345.79L115.34 345.88L115.33 345.97L115.32 346.08L115.32 346.2L115.31 346.33L115.31 346.47L115.31 346.61L115.3 346.77L115.3 346.93L115.3 347.1L115.3 347.28L115.3 347.46L115.3 347.65L115.31 347.85L115.31 348.05L115.31 348.25L115.32 348.47L115.32 348.68L115.33 348.9L115.34 349.13L115.35 349.36L115.35 349.59L115.5 353.74L121.14 354.55L122.79 354.78L124.46 355.02L126.15 355.24L127.86 355.45L129.58 355.66L131.31 355.86L133.06 356.04L134.82 356.22L136.59 356.4L138.37 356.56L140.15 356.71L141.94 356.86L143.74 356.99L145.53 357.12L147.33 357.24L149.13 357.35L150.92 357.45L152.72 357.54L154.51 357.62L156.29 357.69L158.06 357.75L159.83 357.8L161.59 357.85L163.33 357.88L165.06 357.9L166.78 357.92L168.49 357.92L170.17 357.92L171.84 357.9L183.11 357.75L179.92 356.2L179.24 355.87L178.55 355.56L177.85 355.26L177.13 354.97L176.4 354.69L175.64 354.42L174.86 354.16L174.06 353.91L173.23 353.67L172.37 353.43L171.48 353.21L170.56 352.99L169.59 352.78L168.59 352.57L167.55 352.38L166.47 352.18L165.34 352L164.16 351.81L162.93 351.63L161.65 351.46L160.31 351.29L158.91 351.12L157.46 350.96L155.94 350.79L154.36 350.63L152.71 350.47L151 350.31L149.21 350.15L147.34 349.99L145.81 349.86L144.33 349.73L142.89 349.61L141.51 349.48L140.17 349.36L138.88 349.24L137.64 349.12L136.44 349L135.28 348.88L134.17 348.76L133.09 348.65L132.06 348.53L131.06 348.41L130.11 348.29L129.18 348.18L128.3 348.06L127.45 347.94L126.63 347.83L125.84 347.71L125.09 347.59L124.36 347.47L123.66 347.35L122.99 347.23L122.34 347.11L121.72 346.99L121.13 346.86L120.55 346.74L120 346.61L119.47 346.48L119.25 346.43L119.04 346.37L118.83 346.32L118.62 346.26L118.41 346.21L118.21 346.16L118.01 346.11L117.81 346.06L117.62 346.01L117.44 345.96L117.26 345.92L117.09 345.88L116.92 345.84L116.76 345.8L116.61 345.76L116.46 345.72L116.32 345.69L116.19 345.66L116.07 345.63L115.96 345.6L115.86 345.58L115.76 345.56L115.68 345.54L115.6 345.52L115.54 345.51L115.49 345.5L115.45 345.49L115.42 345.48L115.4 345.48L115.39 345.49L115.38 345.51ZM92.86 321.45L92.86 321.46L92.86 321.47L92.86 321.48L92.86 321.49L92.86 321.5L92.86 321.52L92.87 321.54L92.87 321.55L92.87 321.58L92.88 321.6L92.88 321.62L92.89 321.65L92.89 321.68L92.9 321.71L92.91 321.74L92.92 321.77L92.93 321.81L92.94 321.84L92.95 321.88L92.96 321.92L92.97 321.96L92.98 322L93 322.04L93.01 322.09L93.02 322.13L93.04 322.18L93.05 322.22L93.07 322.27L93.09 322.32L93.1 322.37L93.12 322.42L93.14 322.47L93.16 322.53L93.18 322.58L93.2 322.63L93.22 322.69L93.24 322.74L93.26 322.8L93.49 323.39L93.75 323.96L94.03 324.53L94.33 325.08L94.66 325.62L95 326.15L95.38 326.67L95.78 327.17L96.2 327.67L96.64 328.15L97.11 328.62L97.61 329.09L98.13 329.54L98.67 329.97L99.24 330.4L99.84 330.82L100.45 331.22L101.1 331.62L101.77 332L102.46 332.38L103.19 332.74L103.93 333.09L104.71 333.43L105.5 333.76L106.33 334.08L107.18 334.39L108.06 334.69L108.96 334.98L109.89 335.26L110.85 335.53L111.83 335.79L112.84 336.04L113.88 336.28L114.95 336.51L116.04 336.72L117.16 336.93L118.31 337.13L119.48 337.32L120.69 337.5L121.92 337.67L123.83 337.93L125.76 338.19L127.7 338.44L129.66 338.7L131.64 338.95L133.63 339.2L135.63 339.45L137.64 339.7L139.66 339.94L141.68 340.18L143.71 340.42L145.75 340.66L147.79 340.89L149.83 341.12L151.87 341.35L153.9 341.57L155.94 341.79L157.97 342.01L159.99 342.23L162.01 342.43L164.02 342.64L166.01 342.84L168 343.04L169.97 343.23L171.93 343.42L173.87 343.6L175.8 343.78L177.7 343.95L179.58 344.12L181.45 344.28L183.29 344.44L185.1 344.59L186.89 344.74L188.65 344.88L190.38 345.01L192.08 345.14L193.74 345.26L195.38 345.37L196.97 345.48L198.54 345.58L199.59 345.64L200.74 345.7L202 345.76L203.34 345.81L204.77 345.86L206.28 345.91L207.86 345.95L209.51 345.99L211.22 346.03L213 346.06L214.82 346.09L216.69 346.12L218.6 346.14L220.54 346.16L222.51 346.18L224.51 346.2L226.52 346.21L228.55 346.21L230.58 346.22L232.61 346.22L234.64 346.22L236.66 346.21L238.66 346.21L240.64 346.2L242.59 346.18L244.5 346.16L246.38 346.14L248.22 346.12L250 346.09L251.73 346.06L253.39 346.03L254.99 345.99L256.51 345.95L257.96 345.91L259.32 345.86L260.6 345.81L261.77 345.76L262.85 345.7L263.81 345.64L264.67 345.58L266.17 345.46L267.66 345.34L269.14 345.21L270.6 345.08L272.05 344.95L273.49 344.81L274.91 344.66L276.32 344.52L277.72 344.37L279.1 344.21L280.47 344.05L281.82 343.89L283.16 343.72L284.49 343.55L285.79 343.38L287.09 343.2L288.36 343.02L289.62 342.83L290.86 342.65L292.09 342.45L293.3 342.26L294.49 342.06L295.67 341.86L296.82 341.65L297.96 341.45L299.08 341.23L300.18 341.02L301.27 340.8L302.33 340.58L303.37 340.36L304.4 340.13L305.4 339.9L306.38 339.67L307.35 339.44L308.29 339.2L309.21 338.96L310.11 338.72L310.99 338.47L311.84 338.22L312.68 337.97L315.86 336.97L312.19 337.22L308.6 337.46L305.02 337.68L301.43 337.9L297.84 338.1L294.25 338.29L290.67 338.48L287.09 338.65L283.51 338.81L279.95 338.96L276.39 339.11L272.84 339.24L269.3 339.36L265.78 339.47L262.27 339.57L258.78 339.66L255.3 339.74L251.85 339.81L248.41 339.86L244.99 339.91L241.6 339.95L238.24 339.98L234.9 339.99L231.58 340L228.3 339.99L225.05 339.98L221.82 339.95L218.64 339.92L215.48 339.87L212.37 339.81L209.29 339.74L206.25 339.66L203.25 339.57L200.29 339.47L197.38 339.36L194.51 339.24L191.69 339.11L188.92 338.97L186.19 338.81L183.52 338.65L180.9 338.47L178.37 338.29L175.86 338.09L173.37 337.88L170.89 337.66L168.44 337.43L166 337.19L163.58 336.93L161.17 336.67L158.79 336.4L156.43 336.11L154.09 335.81L151.77 335.51L149.47 335.19L147.19 334.86L144.94 334.53L142.71 334.18L140.5 333.82L138.31 333.45L136.15 333.07L134.01 332.68L131.9 332.29L129.81 331.88L127.75 331.46L125.72 331.03L123.71 330.6L121.73 330.15L119.78 329.69L117.85 329.23L115.95 328.75L114.08 328.27L112.25 327.78L110.44 327.28L108.66 326.77L106.91 326.25L105.19 325.72L103.5 325.18L101.85 324.64L100.23 324.08L98.64 323.52L97.08 322.95L96.92 322.89L96.75 322.83L96.59 322.77L96.43 322.71L96.27 322.66L95.96 322.54L95.81 322.49L95.66 322.43L95.51 322.38L95.36 322.33L95.22 322.27L95.08 322.22L94.94 322.17L94.81 322.12L94.68 322.08L94.55 322.03L94.42 321.99L94.3 321.94L94.19 321.9L94.07 321.86L93.96 321.82L93.86 321.78L93.76 321.75L93.66 321.71L93.57 321.68L93.49 321.65L93.41 321.62L93.33 321.6L93.26 321.57L93.19 321.55L93.13 321.53L93.08 321.51L93.03 321.49L92.99 321.48L92.95 321.47L92.92 321.46L92.9 321.45L92.88 321.45L92.87 321.45L92.87 321.45L92.86 321.45ZM81.99 295.49L81.85 295.57L81.72 295.69L81.61 295.84L81.51 296.02L81.42 296.23L81.34 296.48L81.27 296.76L81.21 297.06L81.17 297.34L81.14 297.64L81.13 297.97L81.13 298.31L81.14 298.69L81.17 299.08L81.21 299.48L81.27 299.91L81.34 300.35L81.41 300.8L81.5 301.27L81.61 301.75L81.72 302.23L81.84 302.72L81.97 303.21L82.11 303.71L82.26 304.21L82.42 304.71L82.59 305.2L82.77 305.7L82.95 306.18L83.14 306.66L83.33 307.14L83.53 307.6L83.74 308.05L83.95 308.48L84.2 308.97L84.45 309.45L84.71 309.92L84.99 310.38L85.27 310.84L85.56 311.28L85.87 311.72L86.18 312.15L86.5 312.56L86.82 312.97L87.16 313.37L87.5 313.76L87.85 314.13L88.21 314.5L88.58 314.85L88.95 315.2L89.33 315.53L89.71 315.85L90.1 316.15L90.5 316.45L90.9 316.73L91.3 317L91.71 317.26L92.13 317.5L92.55 317.73L92.97 317.94L93.97 318.4L95.05 318.85L96.21 319.28L97.44 319.7L98.73 320.11L100.09 320.5L101.49 320.87L102.94 321.23L104.42 321.57L105.94 321.88L107.48 322.18L109.04 322.46L110.62 322.71L112.19 322.94L113.77 323.15L115.34 323.33L116.9 323.48L118.44 323.61L119.95 323.71L121.42 323.78L122.86 323.81L124.25 323.82L125.59 323.79L126.87 323.73L128.08 323.63L129.22 323.5L129.67 323.44L130.11 323.38L130.56 323.31L131 323.24L131.43 323.17L131.86 323.1L132.28 323.02L132.69 322.94L133.09 322.86L133.48 322.78L133.85 322.7L134.21 322.62L134.55 322.54L134.87 322.47L135.17 322.39L135.45 322.31L135.7 322.24L135.93 322.16L136.14 322.09L136.32 322.03L136.46 321.96L136.58 321.9L136.67 321.84L136.72 321.79L136.73 321.74L136.71 321.7L136.7 321.69L136.65 321.68L136.58 321.67L136.49 321.66L136.38 321.64L136.25 321.62L136.09 321.6L135.91 321.58L135.72 321.55L135.51 321.53L135.27 321.5L135.02 321.47L134.76 321.44L134.48 321.4L134.18 321.37L133.88 321.34L133.55 321.3L133.22 321.26L132.87 321.23L132.52 321.19L132.15 321.15L131.78 321.11L131.39 321.07L131 321.03L130.6 320.99L130.2 320.95L128.23 320.74L126.29 320.48L124.38 320.18L122.5 319.83L120.66 319.44L118.85 319.01L117.06 318.53L115.31 318L113.58 317.42L111.88 316.8L110.21 316.13L108.57 315.42L106.95 314.65L105.35 313.84L103.78 312.98L102.24 312.07L100.71 311.11L99.21 310.1L97.73 309.03L96.27 307.92L94.83 306.76L93.42 305.55L92.02 304.28L90.63 302.96L89.27 301.59L87.92 300.17L87.38 299.58L86.86 299.04L86.38 298.53L85.92 298.07L85.49 297.64L85.09 297.25L84.71 296.9L84.36 296.59L84.03 296.32L83.72 296.08L83.44 295.88L83.17 295.72L82.93 295.59L82.71 295.5L82.5 295.45L82.31 295.43L82.14 295.44L81.99 295.49Z" id="d6mMUE9ED"></path><path d="M359.27 433.86C356.38 441.52 353.49 454.64 354.71 454.64C355.54 454.64 361.72 451.68 364.8 449.78C369.01 447.22 377.93 440.32 382.09 436.41C385.08 433.56 385.72 432.65 386.41 430.3C387.34 427 389.69 424.14 393.41 421.94C396.01 420.39 396.11 420.19 399.14 413.58C402.62 405.92 403.8 401.71 403.8 397C403.8 392.7 403.45 391.55 402.13 391.55C401.59 391.55 400.22 391.2 399.14 390.8C398.06 390.4 396.94 390.09 396.69 390.04C396.4 390.04 393.31 392.25 389.83 394.9C375.19 406.07 364.8 419.34 359.27 433.86Z" id="gx9cM4KEI"></path><path d="M108.89 535.25C74.5 538.2 36.48 547.21 20.91 556.08C15.52 559.18 10.42 565.29 8.36 571.2C5.57 579.21 9.83 588.47 19.34 595.18C27.03 600.64 33.54 603.29 60.39 612.05C82.78 619.37 92.62 621.82 113.79 625.32C122.46 626.78 128.39 628.13 135.1 630.08C151.31 634.84 155.77 635.44 182.13 636.39C198.83 636.99 205.1 637.49 215.19 638.99C226.36 640.64 241.84 640.24 257.81 637.94C265.01 636.89 276.18 636.09 291.12 635.64C304.35 635.24 314.59 634.49 319.68 633.59C322.04 633.18 328.65 631.48 334.38 629.83C342.02 627.58 348.19 626.22 357.75 624.57C379.25 620.87 387.29 618.81 411.49 611.05C440.49 601.74 449.21 597.73 456.7 590.22C461.6 585.32 464.25 578.16 463.12 572.75C462.09 567.79 458.03 561.43 453.72 557.93C446.76 552.27 426.67 545.36 403.31 540.56C385.92 537 378.76 536.05 369.99 536C362.55 536 361.72 536.1 359.36 537.2C354.71 539.3 350.99 545.01 351.72 548.87C352.31 552.12 356.67 553.77 364.85 553.77C370.44 553.77 381.02 555.53 389.39 557.78C394.64 559.18 402.62 562.09 404.92 563.39C405.95 563.99 405.85 564.04 403.8 564.34C397.13 565.44 389 564.59 371.46 561.03C352.8 557.23 342.41 557.33 334.48 561.43C334.28 561.53 333.3 562.04 331.54 562.94C332.86 563.33 333.6 563.54 333.74 563.59C337.81 564.84 345.75 566.24 357.55 567.79C374.8 570.05 381.21 571.4 386.99 574.1C387.18 574.19 388.13 574.64 389.83 575.45C388.51 575.72 387.78 575.87 387.63 575.9C383.91 576.76 374.11 576.46 364.61 575.25C359.61 574.65 352.7 574.1 349.17 574.1C341.78 574.05 338.59 574.85 334.28 577.66C334.1 577.78 333.18 578.38 331.54 579.46C332.42 579.73 332.91 579.88 333.01 579.91C333.84 580.11 339.67 581.21 345.99 582.31C352.31 583.46 358.38 584.57 359.46 584.87C362.6 585.67 366.17 586.92 365.98 587.12C365.88 587.22 364.46 587.67 362.89 588.12C360.59 588.72 356.28 589.02 343.54 589.32C330.8 589.62 326.59 589.87 324.78 590.52C322.33 591.33 319.54 592.83 319.54 593.33C319.54 593.53 320.66 594.18 322.08 594.88C324.34 595.98 325.27 596.08 331 596.08C334.53 596.08 340.45 595.88 344.18 595.63C349.91 595.23 350.89 595.28 350.89 595.93C350.89 597.03 349.03 598.84 347.02 599.69C345.94 600.14 342.71 600.59 338.79 600.79C327.91 601.34 330.8 601.99 342.81 601.69C361.18 601.19 373.86 599.44 391.3 595.03C411.24 589.97 427.7 582.36 438.72 573.1C440.88 571.35 441.08 571 440.83 569.6C440.64 568.74 439.85 566.94 439.02 565.54C438.19 564.19 437.4 562.29 437.21 561.38C437.19 561.27 437.11 560.7 436.96 559.68C437.81 560.22 438.29 560.52 438.38 560.58C443.13 563.59 445.44 567.64 445.44 573.05C445.44 578.16 444.75 580.11 442.01 582.81C436.28 588.52 422.66 593.88 399.63 599.54C358.97 609.45 315.86 616.01 269.86 619.11C253.7 620.22 220.19 620.92 209.8 620.32C160.03 617.56 109.97 610.1 66.02 598.89C44.91 593.53 30.9 587.17 27.03 581.31C24.78 577.86 24.68 571.6 26.88 567.09C28.2 564.44 32.12 560.78 33.69 560.78C34.38 560.78 33.74 562.74 31.98 566.04C29.48 570.7 29.48 571.65 32.08 573.85C47.31 586.82 75.97 597.13 108.15 601.14C113.89 601.84 140.24 602.69 139.02 602.09C138.77 601.99 135.39 601.64 131.62 601.39C127.8 601.14 124.12 600.64 123.54 600.34C121.67 599.34 120.16 597.73 120.16 596.73C120.16 595.63 120.6 595.63 131.91 596.53C137.45 597.03 141.66 597.13 143.77 596.83C147.1 596.43 150.58 595.03 150.87 594.03C150.97 593.68 150.09 592.93 148.86 592.33C144.94 590.42 140 589.87 126.18 589.82C113.79 589.82 106.59 589.17 105.36 587.92C104.48 587.02 114.47 584.67 127.75 582.56C132.4 581.86 136.76 581.01 138.23 580.51C140.04 579.91 134.07 576.36 129.56 575.35C125.35 574.45 116.97 574.7 105.56 576.1C94.83 577.41 85.37 577.56 82.48 576.46C81.41 576 81.55 575.9 84.25 574.7C90.42 571.95 96.49 570.7 114.77 568.29C126.92 566.69 134.9 565.19 137.5 564.09C137.6 564.04 138.1 563.81 139.02 563.39C137.08 562.46 136 561.94 135.78 561.83C127.55 557.83 118.29 557.88 97.87 561.98C93.02 562.99 86.84 564.14 84.15 564.54C79.15 565.29 69.21 565.44 66.51 564.84C66.42 564.82 65.93 564.7 65.04 564.49C66.22 563.95 66.87 563.65 67 563.59C77.34 558.93 90.32 555.83 107.86 553.82C115.6 552.92 120.84 552.52 140.49 551.37C140.88 551.35 142.84 551.23 146.36 551.02C146.28 549.82 146.23 549.15 146.22 549.02C145.63 541.76 141.56 537.3 133.82 535.5C130.49 534.75 121.23 534.2 117.22 534.55C115.99 534.65 112.27 534.95 108.89 535.25Z" id="c11a3vaLI"></path></defs><g><g><g><use xlink:href="#bI7z1CckW" opacity="1" fill="#ffffff" fill-opacity="1"></use></g><g><use xlink:href="#hdvnfVKQJ" opacity="1" fill="#000000" fill-opacity="1"></use><g><use xlink:href="#hdvnfVKQJ" opacity="1" fill-opacity="0" stroke="#000000" stroke-width="1" stroke-opacity="0"></use></g></g><g><use xlink:href="#cmzYHDYQR" opacity="1" fill="#000000" fill-opacity="1"></use><g><use xlink:href="#cmzYHDYQR" opacity="1" fill-opacity="0" stroke="#000000" stroke-width="1" stroke-opacity="0"></use></g></g><g><use xlink:href="#b2UfQWxgLd" opacity="1" fill="#000000" fill-opacity="1"></use><g><use xlink:href="#b2UfQWxgLd" opacity="1" fill-opacity="0" stroke="#000000" stroke-width="1" stroke-opacity="0"></use></g></g><g><use xlink:href="#d6mMUE9ED" opacity="1" fill="#000000" fill-opacity="1"></use><g><use xlink:href="#d6mMUE9ED" opacity="1" fill-opacity="0" stroke="#000000" stroke-width="1" stroke-opacity="0"></use></g></g><g><use xlink:href="#gx9cM4KEI" opacity="1" fill="#000000" fill-opacity="1"></use><g><use xlink:href="#gx9cM4KEI" opacity="1" fill-opacity="0" stroke="#000000" stroke-width="1" stroke-opacity="0"></use></g></g><g><use xlink:href="#c11a3vaLI" opacity="1" fill="#000000" fill-opacity="1"></use><g><use xlink:href="#c11a3vaLI" opacity="1" fill-opacity="0" stroke="#000000" stroke-width="1" stroke-opacity="0"></use></g></g></g></g></svg>